<mxfile host="Electron" agent="Mozilla/5.0 (Windows NT 10.0; Win64; x64) AppleWebKit/537.36 (KHTML, like Gecko) draw.io/26.0.16 Chrome/132.0.6834.196 Electron/34.2.0 Safari/537.36" version="26.0.16">
  <diagram name="Main_Diagram" id="IyJyeaVujQpDEMYP9gq8">
    <mxGraphModel dx="527" dy="938" grid="1" gridSize="10" guides="1" tooltips="1" connect="1" arrows="1" fold="1" page="1" pageScale="1.5" pageWidth="1169" pageHeight="827" background="none" math="0" shadow="0">
      <root>
        <mxCell id="rKWjRTj_p7avdpBBxaFx-0" style=";html=1;" />
        <mxCell id="rKWjRTj_p7avdpBBxaFx-1" style=";html=1;" parent="rKWjRTj_p7avdpBBxaFx-0" />
        <mxCell id="uhy4OhNrzmBWaZpSt0tp-204" style="edgeStyle=orthogonalEdgeStyle;rounded=0;orthogonalLoop=1;jettySize=auto;html=1;entryX=0;entryY=0.5;entryDx=0;entryDy=0;fontColor=#000000;" parent="rKWjRTj_p7avdpBBxaFx-1" source="uhy4OhNrzmBWaZpSt0tp-203" edge="1" target="JdxsYVur4gZCgjobztrS-130">
          <mxGeometry relative="1" as="geometry">
            <Array as="points">
              <mxPoint x="1240" y="870" />
              <mxPoint x="1040" y="870" />
              <mxPoint x="1040" y="900" />
              <mxPoint x="1030" y="900" />
              <mxPoint x="1030" y="980" />
            </Array>
            <mxPoint x="1080" y="980" as="targetPoint" />
          </mxGeometry>
        </mxCell>
        <mxCell id="uhy4OhNrzmBWaZpSt0tp-189" style="edgeStyle=orthogonalEdgeStyle;rounded=0;orthogonalLoop=1;jettySize=auto;html=1;entryX=1;entryY=0.5;entryDx=0;entryDy=0;fontColor=#000000;exitX=0;exitY=0.5;exitDx=0;exitDy=0;" parent="rKWjRTj_p7avdpBBxaFx-1" source="JdxsYVur4gZCgjobztrS-72" target="uhy4OhNrzmBWaZpSt0tp-70" edge="1">
          <mxGeometry relative="1" as="geometry">
            <mxPoint x="470" y="980" as="sourcePoint" />
          </mxGeometry>
        </mxCell>
        <mxCell id="uhy4OhNrzmBWaZpSt0tp-190" style="edgeStyle=orthogonalEdgeStyle;rounded=0;orthogonalLoop=1;jettySize=auto;html=1;entryX=0;entryY=0.5;entryDx=0;entryDy=0;fontColor=#000000;exitX=1;exitY=0.5;exitDx=0;exitDy=0;" parent="rKWjRTj_p7avdpBBxaFx-1" source="uhy4OhNrzmBWaZpSt0tp-60" target="JdxsYVur4gZCgjobztrS-71" edge="1">
          <mxGeometry relative="1" as="geometry">
            <Array as="points">
              <mxPoint x="340" y="570" />
              <mxPoint x="340" y="990" />
            </Array>
            <mxPoint x="470" y="1000" as="targetPoint" />
          </mxGeometry>
        </mxCell>
        <mxCell id="-K79wRiN6wr9RuviuwhO-40" style="edgeStyle=orthogonalEdgeStyle;rounded=0;orthogonalLoop=1;jettySize=auto;html=1;entryX=0;entryY=0.5;entryDx=0;entryDy=0;fontColor=#000000;" parent="rKWjRTj_p7avdpBBxaFx-1" source="-K79wRiN6wr9RuviuwhO-39" target="JdxsYVur4gZCgjobztrS-64" edge="1">
          <mxGeometry relative="1" as="geometry">
            <Array as="points">
              <mxPoint x="790" y="800" />
            </Array>
            <mxPoint x="810" y="800" as="targetPoint" />
          </mxGeometry>
        </mxCell>
        <mxCell id="-K79wRiN6wr9RuviuwhO-12" style="edgeStyle=orthogonalEdgeStyle;rounded=0;orthogonalLoop=1;jettySize=auto;html=1;entryX=0;entryY=0.5;entryDx=0;entryDy=0;exitX=1;exitY=0.5;exitDx=0;exitDy=0;jumpStyle=arc;fontColor=#000000;" parent="rKWjRTj_p7avdpBBxaFx-1" target="JdxsYVur4gZCgjobztrS-61" edge="1">
          <mxGeometry relative="1" as="geometry">
            <Array as="points">
              <mxPoint x="820" y="330" />
              <mxPoint x="820" y="360" />
              <mxPoint x="780" y="360" />
              <mxPoint x="780" y="820" />
            </Array>
            <mxPoint x="800" y="330" as="sourcePoint" />
            <mxPoint x="810" y="820" as="targetPoint" />
          </mxGeometry>
        </mxCell>
        <mxCell id="rKWjRTj_p7avdpBBxaFx-10" style="edgeStyle=orthogonalEdgeStyle;rounded=0;orthogonalLoop=1;jettySize=auto;html=1;entryX=0;entryY=0.5;entryDx=0;entryDy=0;jumpStyle=arc;fontColor=#000000;" parent="rKWjRTj_p7avdpBBxaFx-1" source="rKWjRTj_p7avdpBBxaFx-111" target="rKWjRTj_p7avdpBBxaFx-259" edge="1">
          <mxGeometry relative="1" as="geometry">
            <Array as="points">
              <mxPoint x="1250" y="160" />
            </Array>
          </mxGeometry>
        </mxCell>
        <mxCell id="QH7dUR0WgAF6dCg62yjj-27" style="edgeStyle=orthogonalEdgeStyle;rounded=0;orthogonalLoop=1;jettySize=auto;html=1;endArrow=none;startFill=0;jumpStyle=arc;fontColor=#000000;" parent="rKWjRTj_p7avdpBBxaFx-1" source="rKWjRTj_p7avdpBBxaFx-53" target="rKWjRTj_p7avdpBBxaFx-19" edge="1">
          <mxGeometry relative="1" as="geometry">
            <Array as="points" />
          </mxGeometry>
        </mxCell>
        <mxCell id="rKWjRTj_p7avdpBBxaFx-43" style="edgeStyle=orthogonalEdgeStyle;rounded=0;orthogonalLoop=1;jettySize=auto;html=1;entryX=0;entryY=0.5;entryDx=0;entryDy=0;exitX=1;exitY=0.5;exitDx=0;exitDy=0;jumpStyle=arc;fontColor=#000000;" parent="rKWjRTj_p7avdpBBxaFx-1" source="rKWjRTj_p7avdpBBxaFx-261" target="JdxsYVur4gZCgjobztrS-131" edge="1">
          <mxGeometry relative="1" as="geometry">
            <Array as="points">
              <mxPoint x="1710" y="100" />
              <mxPoint x="1710" y="1120" />
              <mxPoint x="1030" y="1120" />
              <mxPoint x="1030" y="1000" />
            </Array>
            <mxPoint x="1080" y="1040" as="targetPoint" />
          </mxGeometry>
        </mxCell>
        <mxCell id="6SGfMAVqhEcrRElv5X5W-26" value="" style="edgeStyle=orthogonalEdgeStyle;rounded=0;orthogonalLoop=1;jettySize=auto;html=1;entryDx=0;entryDy=0;exitX=0.633;exitY=0.6;exitDx=0;exitDy=0;jumpStyle=arc;exitPerimeter=0;endArrow=none;startFill=0;fontColor=#000000;" parent="rKWjRTj_p7avdpBBxaFx-1" source="O00OZB_N-vknSkEfnoMU-0" target="6SGfMAVqhEcrRElv5X5W-6" edge="1">
          <mxGeometry relative="1" as="geometry">
            <mxPoint x="640" y="170" as="targetPoint" />
            <Array as="points">
              <mxPoint x="600" y="470" />
            </Array>
            <mxPoint x="610" y="470" as="sourcePoint" />
          </mxGeometry>
        </mxCell>
        <mxCell id="rKWjRTj_p7avdpBBxaFx-31" style="edgeStyle=orthogonalEdgeStyle;rounded=0;orthogonalLoop=1;jettySize=auto;html=1;entryX=0;entryY=0.5;entryDx=0;entryDy=0;exitDx=0;exitDy=0;jumpStyle=arc;exitPerimeter=0;fontColor=#000000;" parent="rKWjRTj_p7avdpBBxaFx-1" source="6SGfMAVqhEcrRElv5X5W-6" target="JdxsYVur4gZCgjobztrS-32" edge="1">
          <mxGeometry relative="1" as="geometry">
            <mxPoint x="640" y="220" as="targetPoint" />
            <Array as="points">
              <mxPoint x="600" y="220" />
            </Array>
            <mxPoint x="510.02" y="480" as="sourcePoint" />
          </mxGeometry>
        </mxCell>
        <mxCell id="rKWjRTj_p7avdpBBxaFx-60" style="edgeStyle=orthogonalEdgeStyle;rounded=0;orthogonalLoop=1;jettySize=auto;html=1;entryX=0;entryY=0.5;entryDx=0;entryDy=0;jumpStyle=arc;fontColor=#000000;" parent="rKWjRTj_p7avdpBBxaFx-1" source="rKWjRTj_p7avdpBBxaFx-47" target="JdxsYVur4gZCgjobztrS-39" edge="1">
          <mxGeometry relative="1" as="geometry">
            <Array as="points">
              <mxPoint x="620" y="240" />
            </Array>
            <mxPoint x="640" y="260" as="targetPoint" />
          </mxGeometry>
        </mxCell>
        <mxCell id="O00OZB_N-vknSkEfnoMU-3" style="edgeStyle=orthogonalEdgeStyle;rounded=0;orthogonalLoop=1;jettySize=auto;html=1;entryX=0;entryY=0.5;entryDx=0;entryDy=0;endArrow=classic;startFill=0;endFill=1;fontColor=#000000;" parent="rKWjRTj_p7avdpBBxaFx-1" source="O00OZB_N-vknSkEfnoMU-0" target="O00OZB_N-vknSkEfnoMU-2" edge="1">
          <mxGeometry relative="1" as="geometry">
            <Array as="points">
              <mxPoint x="600" y="570" />
            </Array>
            <mxPoint x="600" y="590" as="targetPoint" />
          </mxGeometry>
        </mxCell>
        <mxCell id="rKWjRTj_p7avdpBBxaFx-29" style="edgeStyle=orthogonalEdgeStyle;rounded=0;orthogonalLoop=1;jettySize=auto;html=1;entryX=0;entryY=0.5;entryDx=0;entryDy=0;fontColor=#000000;" parent="rKWjRTj_p7avdpBBxaFx-1" source="rKWjRTj_p7avdpBBxaFx-46" target="rKWjRTj_p7avdpBBxaFx-112" edge="1">
          <mxGeometry relative="1" as="geometry">
            <Array as="points">
              <mxPoint x="160" y="340" />
            </Array>
          </mxGeometry>
        </mxCell>
        <mxCell id="rKWjRTj_p7avdpBBxaFx-15" style="edgeStyle=orthogonalEdgeStyle;rounded=0;orthogonalLoop=1;jettySize=auto;html=1;entryX=0;entryY=0.5;entryDx=0;entryDy=0;jumpStyle=arc;fontColor=#000000;" parent="rKWjRTj_p7avdpBBxaFx-1" source="rKWjRTj_p7avdpBBxaFx-51" target="JdxsYVur4gZCgjobztrS-13" edge="1">
          <mxGeometry relative="1" as="geometry">
            <Array as="points">
              <mxPoint x="1030" y="690" />
              <mxPoint x="1050" y="690" />
              <mxPoint x="1050" y="770" />
            </Array>
            <mxPoint x="1080" y="810" as="targetPoint" />
          </mxGeometry>
        </mxCell>
        <mxCell id="rKWjRTj_p7avdpBBxaFx-16" style="edgeStyle=orthogonalEdgeStyle;rounded=0;orthogonalLoop=1;jettySize=auto;html=1;entryX=0;entryY=0.5;entryDx=0;entryDy=0;jumpStyle=arc;fontColor=#000000;" parent="rKWjRTj_p7avdpBBxaFx-1" source="rKWjRTj_p7avdpBBxaFx-50" target="JdxsYVur4gZCgjobztrS-12" edge="1">
          <mxGeometry relative="1" as="geometry">
            <Array as="points">
              <mxPoint x="1040" y="680" />
              <mxPoint x="1060" y="680" />
              <mxPoint x="1060" y="750" />
            </Array>
            <mxPoint x="1080" y="790" as="targetPoint" />
          </mxGeometry>
        </mxCell>
        <mxCell id="DWYiua4rObmU89wduKeO-1" style="edgeStyle=orthogonalEdgeStyle;rounded=0;orthogonalLoop=1;jettySize=auto;html=1;entryX=0;entryY=0.5;entryDx=0;entryDy=0;jumpStyle=arc;fontColor=#000000;" parent="rKWjRTj_p7avdpBBxaFx-1" source="DWYiua4rObmU89wduKeO-0" target="rKWjRTj_p7avdpBBxaFx-114" edge="1">
          <mxGeometry relative="1" as="geometry">
            <Array as="points">
              <mxPoint x="740" y="420" />
              <mxPoint x="170" y="420" />
              <mxPoint x="170" y="360" />
            </Array>
          </mxGeometry>
        </mxCell>
        <mxCell id="DWYiua4rObmU89wduKeO-4" value="PCC" style="edgeLabel;html=1;align=center;verticalAlign=middle;resizable=0;points=[];fontColor=#000000;" parent="DWYiua4rObmU89wduKeO-1" vertex="1" connectable="0">
          <mxGeometry x="-0.9509" y="-1" relative="1" as="geometry">
            <mxPoint x="-1" y="-8" as="offset" />
          </mxGeometry>
        </mxCell>
        <mxCell id="rKWjRTj_p7avdpBBxaFx-19" value="" style="shape=waypoint;sketch=0;size=6;pointerEvents=1;points=[];fillColor=none;resizable=0;rotatable=0;perimeter=centerPerimeter;snapToPoint=1;fontColor=#000000;" parent="rKWjRTj_p7avdpBBxaFx-1" vertex="1">
          <mxGeometry x="1440" y="860" width="20" height="20" as="geometry" />
        </mxCell>
        <mxCell id="rKWjRTj_p7avdpBBxaFx-30" style="edgeStyle=orthogonalEdgeStyle;rounded=0;orthogonalLoop=1;jettySize=auto;html=1;entryX=0;entryY=0.5;entryDx=0;entryDy=0;jumpStyle=arc;exitX=1;exitY=0.5;exitDx=0;exitDy=0;fontColor=#000000;" parent="rKWjRTj_p7avdpBBxaFx-1" source="rKWjRTj_p7avdpBBxaFx-100" target="rKWjRTj_p7avdpBBxaFx-248" edge="1">
          <mxGeometry relative="1" as="geometry">
            <Array as="points">
              <mxPoint x="1490" y="610" />
              <mxPoint x="1490" y="420" />
              <mxPoint x="1380" y="420" />
              <mxPoint x="1380" y="290" />
            </Array>
          </mxGeometry>
        </mxCell>
        <mxCell id="rKWjRTj_p7avdpBBxaFx-34" value="&lt;h1 style=&quot;margin-top: 0px;&quot;&gt;KHWL_RV32I47F.R10&lt;/h1&gt;&lt;p&gt;&lt;span style=&quot;background-color: transparent;&quot;&gt;One of Final version of milestone; RV32s project.&amp;nbsp;&lt;br&gt;43F Architecture&#39;s changes applied, Cache structure modified.&lt;br&gt;Supports 47 Instructions with Cache-Memory Structure&lt;br&gt;Including Zicsr instructions. (csrrw(i),csrrs(i),csrrc(i))&lt;br&gt;&lt;/span&gt;&lt;/p&gt;&lt;p&gt;&lt;/p&gt;&lt;p&gt;&lt;/p&gt;" style="text;html=1;whiteSpace=wrap;overflow=hidden;rounded=0;fontColor=#000000;" parent="rKWjRTj_p7avdpBBxaFx-1" vertex="1">
          <mxGeometry x="1400" y="1120" width="340" height="110" as="geometry" />
        </mxCell>
        <mxCell id="rKWjRTj_p7avdpBBxaFx-35" value="&lt;div style=&quot;&quot;&gt;&lt;span style=&quot;font-size: 14px; background-color: transparent;&quot;&gt;18:51&lt;/span&gt;&lt;b style=&quot;font-size: 14px; background-color: transparent;&quot;&gt;&amp;nbsp; &amp;nbsp;강현우&lt;/b&gt;&lt;span style=&quot;font-size: 14px; background-color: transparent;&quot;&gt;, KHWL2025.&lt;/span&gt;&lt;/div&gt;&lt;span style=&quot;&quot;&gt;&lt;div style=&quot;&quot;&gt;&lt;span style=&quot;background-color: transparent;&quot;&gt;2024.12.15(日) ~ 2025.03.15(木)&lt;/span&gt;&lt;/div&gt;&lt;/span&gt;" style="text;html=1;align=right;verticalAlign=middle;whiteSpace=wrap;rounded=0;fontColor=#000000;" parent="rKWjRTj_p7avdpBBxaFx-1" vertex="1">
          <mxGeometry x="1210" y="1190" width="180" height="40" as="geometry" />
        </mxCell>
        <mxCell id="rKWjRTj_p7avdpBBxaFx-44" style="edgeStyle=orthogonalEdgeStyle;rounded=0;orthogonalLoop=1;jettySize=auto;html=1;entryX=0;entryY=0.5;entryDx=0;entryDy=0;exitX=1;exitY=0.5;exitDx=0;exitDy=0;jumpStyle=arc;fontColor=#000000;" parent="rKWjRTj_p7avdpBBxaFx-1" source="rKWjRTj_p7avdpBBxaFx-262" target="JdxsYVur4gZCgjobztrS-15" edge="1">
          <mxGeometry relative="1" as="geometry">
            <Array as="points">
              <mxPoint x="1700" y="120" />
              <mxPoint x="1700" y="1110" />
              <mxPoint x="1020" y="1110" />
              <mxPoint x="1020" y="890" />
              <mxPoint x="1030" y="890" />
              <mxPoint x="1030" y="850" />
              <mxPoint x="1070" y="850" />
              <mxPoint x="1070" y="830" />
            </Array>
            <mxPoint x="1080" y="830" as="targetPoint" />
          </mxGeometry>
        </mxCell>
        <mxCell id="rKWjRTj_p7avdpBBxaFx-46" value="" style="shape=waypoint;sketch=0;size=6;pointerEvents=1;points=[];fillColor=none;resizable=0;rotatable=0;perimeter=centerPerimeter;snapToPoint=1;fontColor=#000000;" parent="rKWjRTj_p7avdpBBxaFx-1" vertex="1">
          <mxGeometry x="150" y="530" width="20" height="20" as="geometry" />
        </mxCell>
        <mxCell id="rKWjRTj_p7avdpBBxaFx-47" value="" style="shape=waypoint;sketch=0;size=6;pointerEvents=1;points=[];fillColor=none;resizable=0;rotatable=0;perimeter=centerPerimeter;snapToPoint=1;fontColor=#000000;" parent="rKWjRTj_p7avdpBBxaFx-1" vertex="1">
          <mxGeometry x="610" y="480" width="20" height="20" as="geometry" />
        </mxCell>
        <mxCell id="rKWjRTj_p7avdpBBxaFx-49" value="" style="shape=waypoint;sketch=0;size=6;pointerEvents=1;points=[];fillColor=none;resizable=0;rotatable=0;perimeter=centerPerimeter;snapToPoint=1;fontColor=#000000;" parent="rKWjRTj_p7avdpBBxaFx-1" vertex="1">
          <mxGeometry x="1090" y="450" width="20" height="20" as="geometry" />
        </mxCell>
        <mxCell id="rKWjRTj_p7avdpBBxaFx-53" value="" style="shape=waypoint;sketch=0;size=6;pointerEvents=1;points=[];fillColor=none;resizable=0;rotatable=0;perimeter=centerPerimeter;snapToPoint=1;fontColor=#000000;" parent="rKWjRTj_p7avdpBBxaFx-1" vertex="1">
          <mxGeometry x="1440" y="730" width="20" height="20" as="geometry" />
        </mxCell>
        <mxCell id="rKWjRTj_p7avdpBBxaFx-56" style="edgeStyle=orthogonalEdgeStyle;rounded=0;orthogonalLoop=1;jettySize=auto;html=1;entryX=0;entryY=0.5;entryDx=0;entryDy=0;jumpStyle=arc;fontColor=#000000;" parent="rKWjRTj_p7avdpBBxaFx-1" source="rKWjRTj_p7avdpBBxaFx-57" target="rKWjRTj_p7avdpBBxaFx-257" edge="1">
          <mxGeometry relative="1" as="geometry">
            <Array as="points">
              <mxPoint x="1520" y="390" />
              <mxPoint x="1520" y="180" />
            </Array>
          </mxGeometry>
        </mxCell>
        <mxCell id="rKWjRTj_p7avdpBBxaFx-57" value="" style="shape=waypoint;sketch=0;size=6;pointerEvents=1;points=[];fillColor=none;resizable=0;rotatable=0;perimeter=centerPerimeter;snapToPoint=1;fontColor=#000000;" parent="rKWjRTj_p7avdpBBxaFx-1" vertex="1">
          <mxGeometry x="1360" y="380" width="20" height="20" as="geometry" />
        </mxCell>
        <mxCell id="rKWjRTj_p7avdpBBxaFx-73" value="" style="edgeStyle=orthogonalEdgeStyle;rounded=0;orthogonalLoop=1;jettySize=auto;html=1;entryX=0;entryY=0.5;entryDx=0;entryDy=0;jumpStyle=arc;exitX=1;exitY=0.5;exitDx=0;exitDy=0;fontColor=#000000;" parent="rKWjRTj_p7avdpBBxaFx-1" source="rKWjRTj_p7avdpBBxaFx-221" edge="1" target="uhy4OhNrzmBWaZpSt0tp-55">
          <mxGeometry relative="1" as="geometry">
            <mxPoint x="140" y="600" as="sourcePoint" />
            <mxPoint x="230" y="530.0000000000002" as="targetPoint" />
          </mxGeometry>
        </mxCell>
        <mxCell id="rKWjRTj_p7avdpBBxaFx-94" value="" style="group;fontColor=#000000;" parent="rKWjRTj_p7avdpBBxaFx-1" vertex="1" connectable="0">
          <mxGeometry x="1400" y="580" width="80" height="130" as="geometry" />
        </mxCell>
        <mxCell id="rKWjRTj_p7avdpBBxaFx-95" value="&lt;b&gt;ALU&lt;/b&gt;" style="whiteSpace=wrap;html=1;shadow=1;fontSize=18;fillColor=#f5f5f5;strokeColor=#666666;resizeWidth=0;comic=0;rotatable=1;treeFolding=0;collapsible=0;dropTarget=0;container=0;portConstraintRotation=0;fontColor=#000000;" parent="rKWjRTj_p7avdpBBxaFx-94" vertex="1">
          <mxGeometry width="80" height="130" as="geometry" />
        </mxCell>
        <mxCell id="rKWjRTj_p7avdpBBxaFx-96" value="ALUop" style="text;html=1;align=center;verticalAlign=middle;whiteSpace=wrap;rounded=0;container=0;fontColor=#000000;" parent="rKWjRTj_p7avdpBBxaFx-94" vertex="1">
          <mxGeometry x="20" width="40" height="20" as="geometry" />
        </mxCell>
        <mxCell id="rKWjRTj_p7avdpBBxaFx-97" value="ALUresult" style="text;html=1;align=right;verticalAlign=middle;whiteSpace=wrap;rounded=0;container=0;fontColor=#000000;" parent="rKWjRTj_p7avdpBBxaFx-94" vertex="1">
          <mxGeometry x="20" y="110" width="60" height="20" as="geometry" />
        </mxCell>
        <mxCell id="rKWjRTj_p7avdpBBxaFx-98" value="srcA" style="text;html=1;align=left;verticalAlign=middle;whiteSpace=wrap;rounded=0;container=0;fontColor=#000000;" parent="rKWjRTj_p7avdpBBxaFx-94" vertex="1">
          <mxGeometry y="10" width="30" height="20" as="geometry" />
        </mxCell>
        <mxCell id="rKWjRTj_p7avdpBBxaFx-99" value="srcB" style="text;html=1;align=left;verticalAlign=middle;whiteSpace=wrap;rounded=0;container=0;fontColor=#000000;" parent="rKWjRTj_p7avdpBBxaFx-94" vertex="1">
          <mxGeometry y="40" width="30" height="20" as="geometry" />
        </mxCell>
        <mxCell id="rKWjRTj_p7avdpBBxaFx-100" value="ALUzero" style="text;html=1;align=right;verticalAlign=middle;whiteSpace=wrap;rounded=0;container=0;fontColor=#000000;" parent="rKWjRTj_p7avdpBBxaFx-94" vertex="1">
          <mxGeometry x="30" y="20" width="50" height="20" as="geometry" />
        </mxCell>
        <mxCell id="rKWjRTj_p7avdpBBxaFx-111" value="" style="shape=waypoint;sketch=0;size=6;pointerEvents=1;points=[];fillColor=none;resizable=0;rotatable=0;perimeter=centerPerimeter;snapToPoint=1;fontColor=#000000;" parent="rKWjRTj_p7avdpBBxaFx-1" vertex="1">
          <mxGeometry x="1240" y="640" width="20" height="20" as="geometry" />
        </mxCell>
        <mxCell id="rKWjRTj_p7avdpBBxaFx-135" style="edgeStyle=orthogonalEdgeStyle;rounded=0;orthogonalLoop=1;jettySize=auto;html=1;entryX=0;entryY=0.5;entryDx=0;entryDy=0;jumpStyle=arc;fontColor=#000000;" parent="rKWjRTj_p7avdpBBxaFx-1" target="rKWjRTj_p7avdpBBxaFx-98" edge="1">
          <mxGeometry relative="1" as="geometry">
            <mxPoint x="1370" y="600" as="sourcePoint" />
          </mxGeometry>
        </mxCell>
        <mxCell id="rKWjRTj_p7avdpBBxaFx-179" value="" style="group;fillColor=#dae8fc;strokeColor=#6c8ebf;fontColor=#000000;" parent="rKWjRTj_p7avdpBBxaFx-1" vertex="1" connectable="0">
          <mxGeometry x="440" y="460" width="120" height="160" as="geometry" />
        </mxCell>
        <mxCell id="rKWjRTj_p7avdpBBxaFx-180" value="&lt;div&gt;&lt;b&gt;&lt;font&gt;&lt;span style=&quot;background-color: transparent;&quot;&gt;Instruction&lt;/span&gt;&lt;br&gt;&lt;/font&gt;&lt;/b&gt;&lt;/div&gt;&lt;div&gt;&lt;font&gt;&lt;b style=&quot;&quot;&gt;Decoder&lt;/b&gt;&lt;/font&gt;&lt;/div&gt;" style="whiteSpace=wrap;html=1;shadow=1;fontSize=18;fillColor=#f5f5f5;strokeColor=#666666;fontColor=#000000;align=left;" parent="rKWjRTj_p7avdpBBxaFx-179" vertex="1">
          <mxGeometry width="120" height="160" as="geometry" />
        </mxCell>
        <mxCell id="rKWjRTj_p7avdpBBxaFx-181" value="I_RD" style="text;html=1;align=left;verticalAlign=middle;whiteSpace=wrap;rounded=0;fontColor=#000000;" parent="rKWjRTj_p7avdpBBxaFx-179" vertex="1">
          <mxGeometry y="40" width="40" height="20" as="geometry" />
        </mxCell>
        <mxCell id="rKWjRTj_p7avdpBBxaFx-182" value="opcode" style="text;html=1;align=right;verticalAlign=middle;whiteSpace=wrap;rounded=0;fontColor=#000000;" parent="rKWjRTj_p7avdpBBxaFx-179" vertex="1">
          <mxGeometry x="70" width="50" height="20" as="geometry" />
        </mxCell>
        <mxCell id="rKWjRTj_p7avdpBBxaFx-183" value="&lt;div style=&quot;&quot;&gt;&lt;span style=&quot;background-color: transparent;&quot;&gt;rs1&lt;/span&gt;&lt;/div&gt;" style="text;html=1;align=right;verticalAlign=middle;whiteSpace=wrap;rounded=0;fontColor=#000000;" parent="rKWjRTj_p7avdpBBxaFx-179" vertex="1">
          <mxGeometry x="100" y="60" width="20" height="20" as="geometry" />
        </mxCell>
        <mxCell id="rKWjRTj_p7avdpBBxaFx-184" value="rs2" style="text;html=1;align=right;verticalAlign=middle;whiteSpace=wrap;rounded=0;fontColor=#000000;" parent="rKWjRTj_p7avdpBBxaFx-179" vertex="1">
          <mxGeometry x="100" y="70" width="20" height="20" as="geometry" />
        </mxCell>
        <mxCell id="rKWjRTj_p7avdpBBxaFx-185" value="rd" style="text;html=1;align=right;verticalAlign=middle;whiteSpace=wrap;rounded=0;fontColor=#000000;" parent="rKWjRTj_p7avdpBBxaFx-179" vertex="1">
          <mxGeometry x="100" y="80" width="20" height="20" as="geometry" />
        </mxCell>
        <mxCell id="rKWjRTj_p7avdpBBxaFx-186" value="raw_imm" style="text;html=1;align=right;verticalAlign=middle;whiteSpace=wrap;rounded=0;fontColor=#000000;" parent="rKWjRTj_p7avdpBBxaFx-179" vertex="1">
          <mxGeometry x="60" y="120" width="60" height="20" as="geometry" />
        </mxCell>
        <mxCell id="rKWjRTj_p7avdpBBxaFx-187" value="funct3" style="text;html=1;align=right;verticalAlign=middle;whiteSpace=wrap;rounded=0;fontColor=#000000;" parent="rKWjRTj_p7avdpBBxaFx-179" vertex="1">
          <mxGeometry x="80" y="20" width="40" height="20" as="geometry" />
        </mxCell>
        <mxCell id="rKWjRTj_p7avdpBBxaFx-188" value="funct7" style="text;html=1;align=right;verticalAlign=middle;whiteSpace=wrap;rounded=0;fontColor=#000000;" parent="rKWjRTj_p7avdpBBxaFx-179" vertex="1">
          <mxGeometry x="80" y="40" width="40" height="20" as="geometry" />
        </mxCell>
        <mxCell id="rKWjRTj_p7avdpBBxaFx-197" value="" style="shape=waypoint;sketch=0;size=6;pointerEvents=1;points=[];fillColor=none;resizable=0;rotatable=0;perimeter=centerPerimeter;snapToPoint=1;fontColor=#000000;" parent="rKWjRTj_p7avdpBBxaFx-1" vertex="1">
          <mxGeometry x="590" y="580" width="20" height="20" as="geometry" />
        </mxCell>
        <mxCell id="rKWjRTj_p7avdpBBxaFx-232" style="edgeStyle=orthogonalEdgeStyle;rounded=0;orthogonalLoop=1;jettySize=auto;html=1;entryX=0;entryY=0.5;entryDx=0;entryDy=0;exitX=1;exitY=0.5;exitDx=0;exitDy=0;jumpStyle=arc;fontColor=#000000;" parent="rKWjRTj_p7avdpBBxaFx-1" source="rKWjRTj_p7avdpBBxaFx-185" target="rKWjRTj_p7avdpBBxaFx-143" edge="1">
          <mxGeometry relative="1" as="geometry">
            <Array as="points">
              <mxPoint x="790" y="550" />
              <mxPoint x="790" y="630" />
              <mxPoint x="830" y="630" />
              <mxPoint x="830" y="680" />
            </Array>
          </mxGeometry>
        </mxCell>
        <mxCell id="rKWjRTj_p7avdpBBxaFx-233" style="edgeStyle=orthogonalEdgeStyle;rounded=0;orthogonalLoop=1;jettySize=auto;html=1;entryX=0;entryY=0.5;entryDx=0;entryDy=0;exitX=1;exitY=0.5;exitDx=0;exitDy=0;jumpStyle=arc;fontColor=#000000;" parent="rKWjRTj_p7avdpBBxaFx-1" source="JdxsYVur4gZCgjobztrS-31" target="rKWjRTj_p7avdpBBxaFx-146" edge="1">
          <mxGeometry relative="1" as="geometry">
            <Array as="points">
              <mxPoint x="830" y="310" />
              <mxPoint x="830" y="580" />
            </Array>
            <mxPoint x="800" y="310" as="sourcePoint" />
          </mxGeometry>
        </mxCell>
        <mxCell id="rKWjRTj_p7avdpBBxaFx-234" style="edgeStyle=orthogonalEdgeStyle;rounded=0;orthogonalLoop=1;jettySize=auto;html=1;entryX=0;entryY=0.5;entryDx=0;entryDy=0;exitX=1;exitY=0.5;exitDx=0;exitDy=0;jumpStyle=arc;fontColor=#000000;" parent="rKWjRTj_p7avdpBBxaFx-1" source="rKWjRTj_p7avdpBBxaFx-184" target="rKWjRTj_p7avdpBBxaFx-142" edge="1">
          <mxGeometry relative="1" as="geometry">
            <Array as="points">
              <mxPoint x="800" y="540" />
              <mxPoint x="800" y="620" />
            </Array>
          </mxGeometry>
        </mxCell>
        <mxCell id="rKWjRTj_p7avdpBBxaFx-235" style="edgeStyle=orthogonalEdgeStyle;rounded=0;orthogonalLoop=1;jettySize=auto;html=1;entryX=0;entryY=0.5;entryDx=0;entryDy=0;exitX=1;exitY=0.5;exitDx=0;exitDy=0;jumpStyle=arc;fontColor=#000000;" parent="rKWjRTj_p7avdpBBxaFx-1" source="rKWjRTj_p7avdpBBxaFx-183" target="rKWjRTj_p7avdpBBxaFx-141" edge="1">
          <mxGeometry relative="1" as="geometry">
            <Array as="points">
              <mxPoint x="810" y="530" />
              <mxPoint x="810" y="600" />
            </Array>
          </mxGeometry>
        </mxCell>
        <mxCell id="rKWjRTj_p7avdpBBxaFx-236" style="edgeStyle=orthogonalEdgeStyle;rounded=0;orthogonalLoop=1;jettySize=auto;html=1;entryX=0;entryY=0.5;entryDx=0;entryDy=0;jumpStyle=arc;flowAnimation=0;shadow=0;exitX=0.5;exitY=0;exitDx=0;exitDy=0;fontColor=#000000;" parent="rKWjRTj_p7avdpBBxaFx-1" source="rKWjRTj_p7avdpBBxaFx-166" target="rKWjRTj_p7avdpBBxaFx-144" edge="1">
          <mxGeometry relative="1" as="geometry">
            <Array as="points">
              <mxPoint x="1690" y="900" />
              <mxPoint x="1690" y="1100" />
              <mxPoint x="1000" y="1100" />
              <mxPoint x="1000" y="750" />
              <mxPoint x="830" y="750" />
              <mxPoint x="830" y="700" />
            </Array>
          </mxGeometry>
        </mxCell>
        <mxCell id="rKWjRTj_p7avdpBBxaFx-241" style="edgeStyle=orthogonalEdgeStyle;rounded=0;orthogonalLoop=1;jettySize=auto;html=1;entryX=0;entryY=0.5;entryDx=0;entryDy=0;jumpStyle=arc;exitDx=0;exitDy=0;fontColor=#000000;" parent="rKWjRTj_p7avdpBBxaFx-1" source="rKWjRTj_p7avdpBBxaFx-50" target="rKWjRTj_p7avdpBBxaFx-254" edge="1">
          <mxGeometry relative="1" as="geometry">
            <Array as="points">
              <mxPoint x="1040" y="290" />
              <mxPoint x="1210" y="290" />
              <mxPoint x="1210" y="80" />
            </Array>
          </mxGeometry>
        </mxCell>
        <mxCell id="rKWjRTj_p7avdpBBxaFx-242" style="edgeStyle=orthogonalEdgeStyle;rounded=0;orthogonalLoop=1;jettySize=auto;html=1;jumpStyle=arc;exitDx=0;exitDy=0;entryX=0;entryY=0.5;entryDx=0;entryDy=0;fontColor=#000000;" parent="rKWjRTj_p7avdpBBxaFx-1" source="rKWjRTj_p7avdpBBxaFx-51" target="rKWjRTj_p7avdpBBxaFx-255" edge="1">
          <mxGeometry relative="1" as="geometry">
            <mxPoint x="1570.0200000000002" y="60" as="targetPoint" />
            <Array as="points">
              <mxPoint x="1030" y="270" />
              <mxPoint x="1200" y="270" />
              <mxPoint x="1200" y="60" />
            </Array>
            <mxPoint x="800.0799999999999" y="310" as="sourcePoint" />
          </mxGeometry>
        </mxCell>
        <mxCell id="rKWjRTj_p7avdpBBxaFx-243" style="edgeStyle=orthogonalEdgeStyle;rounded=0;orthogonalLoop=1;jettySize=auto;html=1;entryX=0;entryY=0.5;entryDx=0;entryDy=0;jumpStyle=arc;exitX=1;exitY=0.5;exitDx=0;exitDy=0;fontColor=#000000;" parent="rKWjRTj_p7avdpBBxaFx-1" source="JdxsYVur4gZCgjobztrS-30" edge="1">
          <mxGeometry relative="1" as="geometry">
            <Array as="points">
              <mxPoint x="1360" y="210" />
            </Array>
            <mxPoint x="1360" y="570" as="targetPoint" />
            <mxPoint x="800" y="215" as="sourcePoint" />
          </mxGeometry>
        </mxCell>
        <mxCell id="rKWjRTj_p7avdpBBxaFx-244" style="edgeStyle=orthogonalEdgeStyle;rounded=0;orthogonalLoop=1;jettySize=auto;html=1;entryX=0;entryY=0.5;entryDx=0;entryDy=0;exitX=1;exitY=0.5;exitDx=0;exitDy=0;jumpStyle=arc;fontColor=#000000;" parent="rKWjRTj_p7avdpBBxaFx-1" source="JdxsYVur4gZCgjobztrS-35" edge="1" target="JdxsYVur4gZCgjobztrS-144">
          <mxGeometry relative="1" as="geometry">
            <mxPoint x="800" y="230" as="sourcePoint" />
            <mxPoint x="1315" y="645" as="targetPoint" />
            <Array as="points">
              <mxPoint x="1325" y="230" />
            </Array>
          </mxGeometry>
        </mxCell>
        <mxCell id="rKWjRTj_p7avdpBBxaFx-252" value="" style="group;fontColor=#000000;" parent="rKWjRTj_p7avdpBBxaFx-1" vertex="1" connectable="0">
          <mxGeometry x="1570" y="50" width="110" height="200" as="geometry" />
        </mxCell>
        <mxCell id="rKWjRTj_p7avdpBBxaFx-253" value="&lt;b&gt;BE_Logic&lt;/b&gt;&lt;div&gt;&lt;br&gt;&lt;/div&gt;" style="whiteSpace=wrap;html=1;shadow=1;fontSize=18;fillColor=#f5f5f5;strokeColor=#666666;container=0;fontColor=#000000;" parent="rKWjRTj_p7avdpBBxaFx-252" vertex="1">
          <mxGeometry width="110" height="200" as="geometry" />
        </mxCell>
        <mxCell id="rKWjRTj_p7avdpBBxaFx-254" value="MemWrite" style="text;html=1;align=left;verticalAlign=middle;whiteSpace=wrap;rounded=0;container=0;fontColor=#000000;" parent="rKWjRTj_p7avdpBBxaFx-252" vertex="1">
          <mxGeometry y="20" width="60" height="20" as="geometry" />
        </mxCell>
        <mxCell id="rKWjRTj_p7avdpBBxaFx-255" value="MemRead" style="text;html=1;align=left;verticalAlign=middle;whiteSpace=wrap;rounded=0;container=0;fontColor=#000000;" parent="rKWjRTj_p7avdpBBxaFx-252" vertex="1">
          <mxGeometry width="60" height="20" as="geometry" />
        </mxCell>
        <mxCell id="rKWjRTj_p7avdpBBxaFx-256" value="BERF_WD" style="text;html=1;align=right;verticalAlign=middle;whiteSpace=wrap;rounded=0;container=0;fontColor=#000000;" parent="rKWjRTj_p7avdpBBxaFx-252" vertex="1">
          <mxGeometry x="50" y="130" width="60" height="20" as="geometry" />
        </mxCell>
        <mxCell id="rKWjRTj_p7avdpBBxaFx-257" value="funct3" style="text;html=1;align=left;verticalAlign=middle;whiteSpace=wrap;rounded=0;container=0;fontColor=#000000;" parent="rKWjRTj_p7avdpBBxaFx-252" vertex="1">
          <mxGeometry y="120" width="40" height="20" as="geometry" />
        </mxCell>
        <mxCell id="rKWjRTj_p7avdpBBxaFx-258" value="DM2RF_RD" style="text;html=1;align=left;verticalAlign=middle;whiteSpace=wrap;rounded=0;container=0;fontColor=#000000;" parent="rKWjRTj_p7avdpBBxaFx-252" vertex="1">
          <mxGeometry y="170" width="80" height="20" as="geometry" />
        </mxCell>
        <mxCell id="rKWjRTj_p7avdpBBxaFx-259" value="RF2DM_RD" style="text;html=1;align=left;verticalAlign=middle;whiteSpace=wrap;rounded=0;container=0;fontColor=#000000;" parent="rKWjRTj_p7avdpBBxaFx-252" vertex="1">
          <mxGeometry y="100" width="70" height="20" as="geometry" />
        </mxCell>
        <mxCell id="rKWjRTj_p7avdpBBxaFx-260" value="address" style="text;html=1;align=left;verticalAlign=middle;whiteSpace=wrap;rounded=0;container=0;fontColor=#000000;" parent="rKWjRTj_p7avdpBBxaFx-252" vertex="1">
          <mxGeometry y="150" width="60" height="20" as="geometry" />
        </mxCell>
        <mxCell id="rKWjRTj_p7avdpBBxaFx-261" value="BEDC_WD" style="text;html=1;align=right;verticalAlign=middle;whiteSpace=wrap;rounded=0;container=0;fontColor=#000000;" parent="rKWjRTj_p7avdpBBxaFx-252" vertex="1">
          <mxGeometry x="40" y="40" width="70" height="20" as="geometry" />
        </mxCell>
        <mxCell id="rKWjRTj_p7avdpBBxaFx-262" value="WriteMask" style="text;html=1;align=right;verticalAlign=middle;whiteSpace=wrap;rounded=0;container=0;fontColor=#000000;" parent="rKWjRTj_p7avdpBBxaFx-252" vertex="1">
          <mxGeometry x="50" y="60" width="60" height="20" as="geometry" />
        </mxCell>
        <mxCell id="rKWjRTj_p7avdpBBxaFx-265" style="edgeStyle=orthogonalEdgeStyle;rounded=0;orthogonalLoop=1;jettySize=auto;html=1;entryX=0;entryY=0.5;entryDx=0;entryDy=0;exitX=1;exitY=0.5;exitDx=0;exitDy=0;jumpStyle=arc;jumpSize=6;fontColor=#000000;" parent="rKWjRTj_p7avdpBBxaFx-1" source="rKWjRTj_p7avdpBBxaFx-78" target="Sg_0BgGoRNo6tfmOOr9p-19" edge="1">
          <mxGeometry relative="1" as="geometry">
            <Array as="points">
              <mxPoint x="990" y="760" />
              <mxPoint x="990" y="1080" />
              <mxPoint x="1550" y="1080" />
              <mxPoint x="1550" y="960" />
            </Array>
          </mxGeometry>
        </mxCell>
        <mxCell id="rKWjRTj_p7avdpBBxaFx-333" style="edgeStyle=orthogonalEdgeStyle;rounded=0;orthogonalLoop=1;jettySize=auto;html=1;entryX=0;entryY=0.5;entryDx=0;entryDy=0;jumpStyle=arc;fontColor=#000000;" parent="rKWjRTj_p7avdpBBxaFx-1" source="rKWjRTj_p7avdpBBxaFx-19" target="rKWjRTj_p7avdpBBxaFx-168" edge="1">
          <mxGeometry relative="1" as="geometry">
            <Array as="points">
              <mxPoint x="1530" y="870" />
              <mxPoint x="1530" y="870" />
            </Array>
          </mxGeometry>
        </mxCell>
        <mxCell id="rKWjRTj_p7avdpBBxaFx-61" style="edgeStyle=orthogonalEdgeStyle;rounded=0;orthogonalLoop=1;jettySize=auto;html=1;entryX=0;entryY=0.5;entryDx=0;entryDy=0;jumpStyle=arc;jumpSize=6;exitX=1;exitY=0.5;exitDx=0;exitDy=0;fontColor=#000000;" parent="rKWjRTj_p7avdpBBxaFx-1" source="rKWjRTj_p7avdpBBxaFx-188" target="rKWjRTj_p7avdpBBxaFx-192" edge="1">
          <mxGeometry relative="1" as="geometry">
            <Array as="points">
              <mxPoint x="1110" y="510" />
              <mxPoint x="1110" y="480" />
            </Array>
          </mxGeometry>
        </mxCell>
        <mxCell id="rKWjRTj_p7avdpBBxaFx-91" style="edgeStyle=orthogonalEdgeStyle;rounded=0;orthogonalLoop=1;jettySize=auto;html=1;entryX=0;entryY=0.5;entryDx=0;entryDy=0;jumpStyle=arc;jumpSize=6;exitX=1;exitY=0.5;exitDx=0;exitDy=0;fontColor=#000000;" parent="rKWjRTj_p7avdpBBxaFx-1" source="rKWjRTj_p7avdpBBxaFx-187" target="rKWjRTj_p7avdpBBxaFx-191" edge="1">
          <mxGeometry relative="1" as="geometry">
            <Array as="points">
              <mxPoint x="1100" y="490" />
              <mxPoint x="1100" y="460" />
            </Array>
          </mxGeometry>
        </mxCell>
        <mxCell id="rKWjRTj_p7avdpBBxaFx-93" style="edgeStyle=orthogonalEdgeStyle;rounded=0;orthogonalLoop=1;jettySize=auto;html=1;entryX=0;entryY=0.5;entryDx=0;entryDy=0;jumpStyle=arc;exitX=1;exitY=0.5;exitDx=0;exitDy=0;fontColor=#000000;" parent="rKWjRTj_p7avdpBBxaFx-1" source="JdxsYVur4gZCgjobztrS-37" target="rKWjRTj_p7avdpBBxaFx-249" edge="1">
          <mxGeometry relative="1" as="geometry">
            <Array as="points" />
            <mxPoint x="800" y="190" as="sourcePoint" />
          </mxGeometry>
        </mxCell>
        <mxCell id="rKWjRTj_p7avdpBBxaFx-58" style="edgeStyle=orthogonalEdgeStyle;rounded=0;orthogonalLoop=1;jettySize=auto;html=1;entryX=0;entryY=0.5;entryDx=0;entryDy=0;jumpStyle=arc;exitX=0.55;exitY=0.75;exitDx=0;exitDy=0;exitPerimeter=0;fontColor=#000000;" parent="rKWjRTj_p7avdpBBxaFx-1" source="rKWjRTj_p7avdpBBxaFx-46" edge="1">
          <mxGeometry relative="1" as="geometry">
            <Array as="points">
              <mxPoint x="160" y="740" />
              <mxPoint x="1020" y="740" />
              <mxPoint x="1020" y="600" />
            </Array>
            <mxPoint x="1350" y="600" as="targetPoint" />
            <mxPoint x="130" y="1040" as="sourcePoint" />
          </mxGeometry>
        </mxCell>
        <mxCell id="Sg_0BgGoRNo6tfmOOr9p-1" value="PC" style="edgeLabel;html=1;align=center;verticalAlign=middle;resizable=0;points=[];fontColor=#000000;" parent="rKWjRTj_p7avdpBBxaFx-58" vertex="1" connectable="0">
          <mxGeometry x="0.9507" relative="1" as="geometry">
            <mxPoint x="-12" as="offset" />
          </mxGeometry>
        </mxCell>
        <mxCell id="O00OZB_N-vknSkEfnoMU-0" value="" style="shape=waypoint;sketch=0;size=6;pointerEvents=1;points=[];fillColor=none;resizable=0;rotatable=0;perimeter=centerPerimeter;snapToPoint=1;fontColor=#000000;" parent="rKWjRTj_p7avdpBBxaFx-1" vertex="1">
          <mxGeometry x="590" y="460" width="20" height="20" as="geometry" />
        </mxCell>
        <mxCell id="O00OZB_N-vknSkEfnoMU-5" value="" style="group;fontColor=#000000;" parent="rKWjRTj_p7avdpBBxaFx-1" vertex="1" connectable="0">
          <mxGeometry x="630" y="560" width="80" height="100" as="geometry" />
        </mxCell>
        <mxCell id="rKWjRTj_p7avdpBBxaFx-149" value="&lt;b&gt;&lt;font style=&quot;font-size: 17px;&quot;&gt;imm_gen&lt;/font&gt;&lt;/b&gt;" style="whiteSpace=wrap;html=1;shadow=1;fontSize=18;fillColor=#f5f5f5;strokeColor=#666666;container=0;fontColor=#000000;" parent="O00OZB_N-vknSkEfnoMU-5" vertex="1">
          <mxGeometry width="80" height="100" as="geometry" />
        </mxCell>
        <mxCell id="O00OZB_N-vknSkEfnoMU-2" value="opcode" style="text;html=1;align=left;verticalAlign=middle;whiteSpace=wrap;rounded=0;fontColor=#000000;" parent="O00OZB_N-vknSkEfnoMU-5" vertex="1">
          <mxGeometry width="50" height="20" as="geometry" />
        </mxCell>
        <mxCell id="BcOnm3LyP_LG9oRJOaX2-1" value="imm" style="text;html=1;align=center;verticalAlign=middle;whiteSpace=wrap;rounded=0;container=0;fontColor=#000000;" parent="O00OZB_N-vknSkEfnoMU-5" vertex="1">
          <mxGeometry x="50" y="80" width="30" height="20" as="geometry" />
        </mxCell>
        <mxCell id="BcOnm3LyP_LG9oRJOaX2-2" value="raw_imm" style="text;html=1;align=left;verticalAlign=middle;whiteSpace=wrap;rounded=0;fontColor=#000000;" parent="O00OZB_N-vknSkEfnoMU-5" vertex="1">
          <mxGeometry y="20" width="60" height="20" as="geometry" />
        </mxCell>
        <mxCell id="O00OZB_N-vknSkEfnoMU-8" value="" style="group;fontColor=#000000;" parent="rKWjRTj_p7avdpBBxaFx-1" vertex="1" connectable="0">
          <mxGeometry x="1130" y="430" width="100" height="140" as="geometry" />
        </mxCell>
        <mxCell id="rKWjRTj_p7avdpBBxaFx-190" value="&lt;div&gt;&lt;span style=&quot;background-color: transparent;&quot;&gt;&lt;b&gt;&lt;br&gt;&lt;/b&gt;&lt;/span&gt;&lt;/div&gt;&lt;div&gt;&lt;b&gt;&lt;span style=&quot;background-color: transparent;&quot;&gt;ALU&lt;/span&gt;&lt;br&gt;&lt;/b&gt;&lt;/div&gt;&lt;div&gt;&lt;b&gt;Controller&lt;/b&gt;&lt;/div&gt;" style="whiteSpace=wrap;html=1;shadow=1;fontSize=18;fillColor=#f5f5f5;strokeColor=#666666;fontColor=#000000;" parent="O00OZB_N-vknSkEfnoMU-8" vertex="1">
          <mxGeometry width="100" height="140" as="geometry" />
        </mxCell>
        <mxCell id="rKWjRTj_p7avdpBBxaFx-191" value="funct3" style="text;html=1;align=left;verticalAlign=middle;whiteSpace=wrap;rounded=0;fontColor=#000000;" parent="O00OZB_N-vknSkEfnoMU-8" vertex="1">
          <mxGeometry y="20" width="40" height="20" as="geometry" />
        </mxCell>
        <mxCell id="rKWjRTj_p7avdpBBxaFx-192" value="funct7" style="text;html=1;align=left;verticalAlign=middle;whiteSpace=wrap;rounded=0;fontColor=#000000;" parent="O00OZB_N-vknSkEfnoMU-8" vertex="1">
          <mxGeometry y="40" width="30" height="20" as="geometry" />
        </mxCell>
        <mxCell id="rKWjRTj_p7avdpBBxaFx-193" value="ALUop" style="text;html=1;align=right;verticalAlign=middle;whiteSpace=wrap;rounded=0;fontColor=#000000;" parent="O00OZB_N-vknSkEfnoMU-8" vertex="1">
          <mxGeometry x="60" y="100" width="40" height="20" as="geometry" />
        </mxCell>
        <mxCell id="rKWjRTj_p7avdpBBxaFx-194" value="opcode" style="text;html=1;align=left;verticalAlign=middle;whiteSpace=wrap;rounded=0;fontColor=#000000;" parent="O00OZB_N-vknSkEfnoMU-8" vertex="1">
          <mxGeometry width="60" height="20" as="geometry" />
        </mxCell>
        <mxCell id="rKWjRTj_p7avdpBBxaFx-195" value="raw_imm" style="text;html=1;align=left;verticalAlign=middle;whiteSpace=wrap;rounded=0;fontColor=#000000;" parent="O00OZB_N-vknSkEfnoMU-8" vertex="1">
          <mxGeometry y="120" width="50" height="20" as="geometry" />
        </mxCell>
        <mxCell id="Sg_0BgGoRNo6tfmOOr9p-14" value="" style="shape=waypoint;sketch=0;size=6;pointerEvents=1;points=[];fillColor=none;resizable=0;rotatable=0;perimeter=centerPerimeter;snapToPoint=1;fontColor=#000000;" parent="rKWjRTj_p7avdpBBxaFx-1" vertex="1">
          <mxGeometry x="1250" y="690" width="20" height="20" as="geometry" />
        </mxCell>
        <mxCell id="sOjidNA8feePJ7DaviF--4" style="edgeStyle=orthogonalEdgeStyle;rounded=0;orthogonalLoop=1;jettySize=auto;html=1;endArrow=none;startFill=0;fontColor=#000000;exitX=0.5;exitY=1;exitDx=0;exitDy=0;" parent="rKWjRTj_p7avdpBBxaFx-1" source="rKWjRTj_p7avdpBBxaFx-97" target="rKWjRTj_p7avdpBBxaFx-53" edge="1">
          <mxGeometry relative="1" as="geometry">
            <Array as="points" />
          </mxGeometry>
        </mxCell>
        <mxCell id="Sg_0BgGoRNo6tfmOOr9p-15" style="edgeStyle=orthogonalEdgeStyle;rounded=0;orthogonalLoop=1;jettySize=auto;html=1;entryX=0;entryY=0.5;entryDx=0;entryDy=0;jumpStyle=arc;fontColor=#000000;" parent="rKWjRTj_p7avdpBBxaFx-1" source="Sg_0BgGoRNo6tfmOOr9p-14" target="rKWjRTj_p7avdpBBxaFx-173" edge="1">
          <mxGeometry relative="1" as="geometry">
            <mxPoint x="1520" y="910" as="targetPoint" />
            <Array as="points">
              <mxPoint x="1260" y="700" />
              <mxPoint x="1260" y="750" />
              <mxPoint x="1440" y="750" />
              <mxPoint x="1440" y="930" />
            </Array>
          </mxGeometry>
        </mxCell>
        <mxCell id="DWYiua4rObmU89wduKeO-0" value="" style="shape=waypoint;sketch=0;size=6;pointerEvents=1;points=[];fillColor=none;resizable=0;rotatable=0;perimeter=centerPerimeter;snapToPoint=1;fontColor=#000000;" parent="rKWjRTj_p7avdpBBxaFx-1" vertex="1">
          <mxGeometry x="730" y="640" width="20" height="20" as="geometry" />
        </mxCell>
        <mxCell id="rKWjRTj_p7avdpBBxaFx-33" style="edgeStyle=orthogonalEdgeStyle;rounded=0;orthogonalLoop=1;jettySize=auto;html=1;entryX=0.5;entryY=0;entryDx=0;entryDy=0;jumpStyle=arc;fontColor=#000000;" parent="rKWjRTj_p7avdpBBxaFx-1" source="rKWjRTj_p7avdpBBxaFx-193" target="rKWjRTj_p7avdpBBxaFx-96" edge="1">
          <mxGeometry relative="1" as="geometry" />
        </mxCell>
        <mxCell id="sOjidNA8feePJ7DaviF--1" style="edgeStyle=orthogonalEdgeStyle;rounded=0;orthogonalLoop=1;jettySize=auto;html=1;entryX=0;entryY=0.5;entryDx=0;entryDy=0;jumpStyle=arc;fontColor=#000000;" parent="rKWjRTj_p7avdpBBxaFx-1" source="rKWjRTj_p7avdpBBxaFx-49" target="rKWjRTj_p7avdpBBxaFx-251" edge="1">
          <mxGeometry relative="1" as="geometry">
            <Array as="points">
              <mxPoint x="1100" y="390" />
              <mxPoint x="1370" y="390" />
              <mxPoint x="1370" y="270" />
            </Array>
          </mxGeometry>
        </mxCell>
        <mxCell id="rKWjRTj_p7avdpBBxaFx-62" style="edgeStyle=orthogonalEdgeStyle;rounded=0;orthogonalLoop=1;jettySize=auto;html=1;entryX=0;entryY=0.5;entryDx=0;entryDy=0;jumpStyle=arc;fontColor=#000000;" parent="rKWjRTj_p7avdpBBxaFx-1" source="rKWjRTj_p7avdpBBxaFx-53" target="rKWjRTj_p7avdpBBxaFx-101" edge="1">
          <mxGeometry relative="1" as="geometry">
            <Array as="points">
              <mxPoint x="1540" y="740" />
              <mxPoint x="1540" y="410" />
              <mxPoint x="180" y="410" />
              <mxPoint x="180" y="380" />
            </Array>
            <mxPoint x="1510" y="580" as="sourcePoint" />
            <mxPoint x="540" y="410" as="targetPoint" />
          </mxGeometry>
        </mxCell>
        <mxCell id="rKWjRTj_p7avdpBBxaFx-5" style="edgeStyle=orthogonalEdgeStyle;rounded=0;orthogonalLoop=1;jettySize=auto;html=1;entryX=0;entryY=0.5;entryDx=0;entryDy=0;jumpStyle=arc;jumpSize=6;exitX=1;exitY=0.5;exitDx=0;exitDy=0;fontColor=#000000;" parent="rKWjRTj_p7avdpBBxaFx-1" source="rKWjRTj_p7avdpBBxaFx-116" target="rKWjRTj_p7avdpBBxaFx-220" edge="1">
          <mxGeometry relative="1" as="geometry">
            <Array as="points">
              <mxPoint x="340" y="360" />
              <mxPoint x="340" y="400" />
              <mxPoint x="40" y="400" />
              <mxPoint x="40" y="540" />
            </Array>
          </mxGeometry>
        </mxCell>
        <mxCell id="6SGfMAVqhEcrRElv5X5W-3" style="edgeStyle=orthogonalEdgeStyle;rounded=0;orthogonalLoop=1;jettySize=auto;html=1;entryX=0;entryY=0.5;entryDx=0;entryDy=0;fontColor=#000000;" parent="rKWjRTj_p7avdpBBxaFx-1" source="6SGfMAVqhEcrRElv5X5W-2" target="rKWjRTj_p7avdpBBxaFx-77" edge="1">
          <mxGeometry relative="1" as="geometry">
            <Array as="points">
              <mxPoint x="180" y="760" />
            </Array>
          </mxGeometry>
        </mxCell>
        <mxCell id="6SGfMAVqhEcrRElv5X5W-2" value="" style="shape=waypoint;sketch=0;size=6;pointerEvents=1;points=[];fillColor=none;resizable=0;rotatable=0;perimeter=centerPerimeter;snapToPoint=1;fontColor=#000000;" parent="rKWjRTj_p7avdpBBxaFx-1" vertex="1">
          <mxGeometry x="149.99999999999997" y="730" width="20" height="20" as="geometry" />
        </mxCell>
        <mxCell id="6SGfMAVqhEcrRElv5X5W-7" style="edgeStyle=orthogonalEdgeStyle;rounded=0;orthogonalLoop=1;jettySize=auto;html=1;entryX=0;entryY=0.5;entryDx=0;entryDy=0;jumpStyle=arc;fontColor=#000000;" parent="rKWjRTj_p7avdpBBxaFx-1" source="6SGfMAVqhEcrRElv5X5W-6" target="rKWjRTj_p7avdpBBxaFx-194" edge="1">
          <mxGeometry relative="1" as="geometry">
            <Array as="points">
              <mxPoint x="600" y="440" />
            </Array>
          </mxGeometry>
        </mxCell>
        <mxCell id="6SGfMAVqhEcrRElv5X5W-9" value="" style="edgeStyle=orthogonalEdgeStyle;rounded=0;orthogonalLoop=1;jettySize=auto;html=1;jumpStyle=arc;exitX=1;exitY=0.5;exitDx=0;exitDy=0;entryDx=0;entryDy=0;endArrow=none;startFill=0;fontColor=#000000;" parent="rKWjRTj_p7avdpBBxaFx-1" target="rKWjRTj_p7avdpBBxaFx-51" edge="1">
          <mxGeometry relative="1" as="geometry">
            <mxPoint x="1570" y="30" as="targetPoint" />
            <Array as="points">
              <mxPoint x="1030" y="270" />
            </Array>
            <mxPoint x="800" y="270" as="sourcePoint" />
          </mxGeometry>
        </mxCell>
        <mxCell id="rKWjRTj_p7avdpBBxaFx-51" value="" style="shape=waypoint;sketch=0;size=6;pointerEvents=1;points=[];fillColor=none;resizable=0;rotatable=0;perimeter=centerPerimeter;snapToPoint=1;fontColor=#000000;" parent="rKWjRTj_p7avdpBBxaFx-1" vertex="1">
          <mxGeometry x="1020" y="260" width="20" height="20" as="geometry" />
        </mxCell>
        <mxCell id="6SGfMAVqhEcrRElv5X5W-11" value="" style="edgeStyle=orthogonalEdgeStyle;rounded=0;orthogonalLoop=1;jettySize=auto;html=1;entryDx=0;entryDy=0;jumpStyle=arc;exitX=1;exitY=0.5;exitDx=0;exitDy=0;endArrow=none;startFill=0;fontColor=#000000;" parent="rKWjRTj_p7avdpBBxaFx-1" target="rKWjRTj_p7avdpBBxaFx-50" edge="1">
          <mxGeometry relative="1" as="geometry">
            <Array as="points">
              <mxPoint x="1040" y="290" />
            </Array>
            <mxPoint x="800" y="290" as="sourcePoint" />
            <mxPoint x="1570" y="50" as="targetPoint" />
          </mxGeometry>
        </mxCell>
        <mxCell id="rKWjRTj_p7avdpBBxaFx-50" value="" style="shape=waypoint;sketch=0;size=6;pointerEvents=1;points=[];fillColor=none;resizable=0;rotatable=0;perimeter=centerPerimeter;snapToPoint=1;fontColor=#000000;" parent="rKWjRTj_p7avdpBBxaFx-1" vertex="1">
          <mxGeometry x="1030" y="280" width="20" height="20" as="geometry" />
        </mxCell>
        <mxCell id="6SGfMAVqhEcrRElv5X5W-6" value="" style="shape=waypoint;sketch=0;size=6;pointerEvents=1;points=[];fillColor=none;resizable=0;rotatable=0;perimeter=centerPerimeter;snapToPoint=1;fontColor=#000000;" parent="rKWjRTj_p7avdpBBxaFx-1" vertex="1">
          <mxGeometry x="590" y="430" width="20" height="20" as="geometry" />
        </mxCell>
        <mxCell id="rKWjRTj_p7avdpBBxaFx-40" style="edgeStyle=orthogonalEdgeStyle;rounded=0;orthogonalLoop=1;jettySize=auto;html=1;entryX=0;entryY=0.5;entryDx=0;entryDy=0;jumpStyle=arc;exitX=1;exitY=0.5;exitDx=0;exitDy=0;fontColor=#000000;" parent="rKWjRTj_p7avdpBBxaFx-1" source="rKWjRTj_p7avdpBBxaFx-186" target="BcOnm3LyP_LG9oRJOaX2-2" edge="1">
          <mxGeometry relative="1" as="geometry">
            <Array as="points">
              <mxPoint x="590" y="590" />
              <mxPoint x="590" y="590" />
            </Array>
            <mxPoint x="630" y="610" as="targetPoint" />
          </mxGeometry>
        </mxCell>
        <mxCell id="QgethlyDFI8PXzep3qGH-0" style="edgeStyle=orthogonalEdgeStyle;rounded=0;orthogonalLoop=1;jettySize=auto;html=1;entryX=0.621;entryY=0.444;entryDx=0;entryDy=0;entryPerimeter=0;endArrow=none;startFill=0;jumpStyle=arc;exitX=1;exitY=0.5;exitDx=0;exitDy=0;fontColor=#000000;" parent="rKWjRTj_p7avdpBBxaFx-1" source="rKWjRTj_p7avdpBBxaFx-182" target="O00OZB_N-vknSkEfnoMU-0" edge="1">
          <mxGeometry relative="1" as="geometry">
            <Array as="points">
              <mxPoint x="570" y="470" />
              <mxPoint x="570" y="470" />
            </Array>
          </mxGeometry>
        </mxCell>
        <mxCell id="rKWjRTj_p7avdpBBxaFx-4" style="edgeStyle=orthogonalEdgeStyle;rounded=0;orthogonalLoop=1;jettySize=auto;html=1;entryX=0;entryY=0.5;entryDx=0;entryDy=0;jumpStyle=arc;fontColor=#000000;" parent="rKWjRTj_p7avdpBBxaFx-1" source="rKWjRTj_p7avdpBBxaFx-197" target="rKWjRTj_p7avdpBBxaFx-195" edge="1">
          <mxGeometry relative="1" as="geometry">
            <Array as="points">
              <mxPoint x="600" y="730" />
              <mxPoint x="1010" y="730" />
              <mxPoint x="1010" y="560" />
            </Array>
            <mxPoint x="600" y="630" as="sourcePoint" />
            <mxPoint x="1130" y="570" as="targetPoint" />
          </mxGeometry>
        </mxCell>
        <mxCell id="rKWjRTj_p7avdpBBxaFx-240" style="edgeStyle=orthogonalEdgeStyle;rounded=0;orthogonalLoop=1;jettySize=auto;html=1;entryX=0;entryY=0.5;entryDx=0;entryDy=0;jumpStyle=arc;exitX=1;exitY=0.5;exitDx=0;exitDy=0;fontColor=#000000;" parent="rKWjRTj_p7avdpBBxaFx-1" source="rKWjRTj_p7avdpBBxaFx-145" edge="1">
          <mxGeometry relative="1" as="geometry">
            <Array as="points">
              <mxPoint x="1120" y="580" />
              <mxPoint x="1120" y="580" />
            </Array>
            <mxPoint x="1350" y="580" as="targetPoint" />
          </mxGeometry>
        </mxCell>
        <mxCell id="Sg_0BgGoRNo6tfmOOr9p-2" value="RD1" style="edgeLabel;html=1;align=center;verticalAlign=middle;resizable=0;points=[];fontColor=#000000;" parent="rKWjRTj_p7avdpBBxaFx-240" vertex="1" connectable="0">
          <mxGeometry x="0.6956" y="-2" relative="1" as="geometry">
            <mxPoint x="10" y="-2" as="offset" />
          </mxGeometry>
        </mxCell>
        <mxCell id="QgethlyDFI8PXzep3qGH-44" value="" style="group;fontColor=#000000;" parent="rKWjRTj_p7avdpBBxaFx-1" vertex="1" connectable="0">
          <mxGeometry x="1400" y="180" width="100" height="120" as="geometry" />
        </mxCell>
        <mxCell id="rKWjRTj_p7avdpBBxaFx-247" value="&lt;b&gt;Branch&lt;/b&gt;&lt;div&gt;&lt;b&gt;Logic&lt;/b&gt;&lt;/div&gt;" style="whiteSpace=wrap;html=1;shadow=1;fontSize=18;fillColor=#f5f5f5;fontColor=#000000;strokeColor=#666666;" parent="QgethlyDFI8PXzep3qGH-44" vertex="1">
          <mxGeometry width="100" height="120" as="geometry" />
        </mxCell>
        <mxCell id="rKWjRTj_p7avdpBBxaFx-248" value="ALUzero" style="text;html=1;align=left;verticalAlign=middle;whiteSpace=wrap;rounded=0;fontColor=#000000;" parent="QgethlyDFI8PXzep3qGH-44" vertex="1">
          <mxGeometry y="100" width="50" height="20" as="geometry" />
        </mxCell>
        <mxCell id="rKWjRTj_p7avdpBBxaFx-249" value="Branch" style="text;html=1;align=left;verticalAlign=middle;whiteSpace=wrap;rounded=0;fontColor=#000000;" parent="QgethlyDFI8PXzep3qGH-44" vertex="1">
          <mxGeometry width="40" height="20" as="geometry" />
        </mxCell>
        <mxCell id="rKWjRTj_p7avdpBBxaFx-250" value="BTaken" style="text;html=1;align=right;verticalAlign=middle;whiteSpace=wrap;rounded=0;fontColor=#000000;" parent="QgethlyDFI8PXzep3qGH-44" vertex="1">
          <mxGeometry x="60" width="40" height="20" as="geometry" />
        </mxCell>
        <mxCell id="rKWjRTj_p7avdpBBxaFx-251" value="funct3" style="text;html=1;align=left;verticalAlign=middle;whiteSpace=wrap;rounded=0;fontColor=#000000;" parent="QgethlyDFI8PXzep3qGH-44" vertex="1">
          <mxGeometry y="80" width="40" height="20" as="geometry" />
        </mxCell>
        <mxCell id="rKWjRTj_p7avdpBBxaFx-336" style="edgeStyle=orthogonalEdgeStyle;rounded=0;orthogonalLoop=1;jettySize=auto;html=1;entryX=0;entryY=0.5;entryDx=0;entryDy=0;exitX=1;exitY=0.5;exitDx=0;exitDy=0;jumpStyle=arc;fontColor=#000000;" parent="rKWjRTj_p7avdpBBxaFx-1" source="rKWjRTj_p7avdpBBxaFx-250" target="rKWjRTj_p7avdpBBxaFx-115" edge="1">
          <mxGeometry relative="1" as="geometry">
            <Array as="points">
              <mxPoint x="1510" y="190" />
              <mxPoint x="1510" y="110" />
              <mxPoint x="160" y="110" />
              <mxPoint x="160" y="300" />
            </Array>
          </mxGeometry>
        </mxCell>
        <mxCell id="rKWjRTj_p7avdpBBxaFx-337" style="edgeStyle=orthogonalEdgeStyle;rounded=0;orthogonalLoop=1;jettySize=auto;html=1;entryX=0;entryY=0.5;entryDx=0;entryDy=0;exitX=1;exitY=0.5;exitDx=0;exitDy=0;jumpStyle=arc;fontColor=#000000;" parent="rKWjRTj_p7avdpBBxaFx-1" source="JdxsYVur4gZCgjobztrS-38" target="rKWjRTj_p7avdpBBxaFx-113" edge="1">
          <mxGeometry relative="1" as="geometry">
            <Array as="points">
              <mxPoint x="840" y="170" />
              <mxPoint x="840" y="120" />
              <mxPoint x="170" y="120" />
              <mxPoint x="170" y="280" />
            </Array>
            <mxPoint x="800" y="170" as="sourcePoint" />
          </mxGeometry>
        </mxCell>
        <mxCell id="rKWjRTj_p7avdpBBxaFx-87" style="edgeStyle=orthogonalEdgeStyle;rounded=0;orthogonalLoop=1;jettySize=auto;html=1;jumpStyle=arc;fontColor=#000000;entryX=0;entryY=0.5;entryDx=0;entryDy=0;" parent="rKWjRTj_p7avdpBBxaFx-1" source="uhy4OhNrzmBWaZpSt0tp-186" target="JdxsYVur4gZCgjobztrS-123" edge="1">
          <mxGeometry relative="1" as="geometry">
            <Array as="points">
              <mxPoint x="1010" y="1070" />
              <mxPoint x="1010" y="810" />
            </Array>
            <mxPoint x="1500" y="1060" as="sourcePoint" />
            <mxPoint x="1040" y="800" as="targetPoint" />
          </mxGeometry>
        </mxCell>
        <mxCell id="QH7dUR0WgAF6dCg62yjj-25" value="" style="group;fontColor=#000000;" parent="rKWjRTj_p7avdpBBxaFx-1" vertex="1" connectable="0">
          <mxGeometry x="850" y="550" width="120" height="160" as="geometry" />
        </mxCell>
        <mxCell id="rKWjRTj_p7avdpBBxaFx-329" value="CLK" style="text;html=1;align=left;verticalAlign=middle;whiteSpace=wrap;rounded=0;container=0;fontColor=#000000;" parent="QH7dUR0WgAF6dCg62yjj-25" vertex="1">
          <mxGeometry x="85" width="30" height="20" as="geometry" />
        </mxCell>
        <mxCell id="rKWjRTj_p7avdpBBxaFx-140" value="&lt;font style=&quot;font-size: 16px;&quot;&gt;&lt;b&gt;Register&lt;br&gt;File&lt;/b&gt;&lt;/font&gt;" style="whiteSpace=wrap;html=1;shadow=1;fontSize=18;fillColor=#f5f5f5;strokeColor=#666666;container=0;fontColor=#000000;" parent="QH7dUR0WgAF6dCg62yjj-25" vertex="1">
          <mxGeometry y="20" width="120" height="140" as="geometry" />
        </mxCell>
        <mxCell id="rKWjRTj_p7avdpBBxaFx-141" value="RA1" style="text;html=1;align=left;verticalAlign=middle;whiteSpace=wrap;rounded=0;container=0;fontColor=#000000;" parent="QH7dUR0WgAF6dCg62yjj-25" vertex="1">
          <mxGeometry y="40" width="40" height="20" as="geometry" />
        </mxCell>
        <mxCell id="rKWjRTj_p7avdpBBxaFx-142" value="RA2" style="text;html=1;align=left;verticalAlign=middle;whiteSpace=wrap;rounded=0;container=0;fontColor=#000000;" parent="QH7dUR0WgAF6dCg62yjj-25" vertex="1">
          <mxGeometry y="60" width="40" height="20" as="geometry" />
        </mxCell>
        <mxCell id="rKWjRTj_p7avdpBBxaFx-143" value="RF_WA" style="text;html=1;align=left;verticalAlign=middle;whiteSpace=wrap;rounded=0;container=0;fontColor=#000000;" parent="QH7dUR0WgAF6dCg62yjj-25" vertex="1">
          <mxGeometry y="120" width="40" height="20" as="geometry" />
        </mxCell>
        <mxCell id="rKWjRTj_p7avdpBBxaFx-144" value="RF_WD" style="text;html=1;align=left;verticalAlign=middle;whiteSpace=wrap;rounded=0;container=0;fontColor=#000000;" parent="QH7dUR0WgAF6dCg62yjj-25" vertex="1">
          <mxGeometry y="140" width="60" height="20" as="geometry" />
        </mxCell>
        <mxCell id="rKWjRTj_p7avdpBBxaFx-145" value="RD1" style="text;html=1;align=right;verticalAlign=middle;whiteSpace=wrap;rounded=0;container=0;fontColor=#000000;" parent="QH7dUR0WgAF6dCg62yjj-25" vertex="1">
          <mxGeometry x="80" y="20" width="40" height="20" as="geometry" />
        </mxCell>
        <mxCell id="rKWjRTj_p7avdpBBxaFx-146" value="RegWrite" style="text;html=1;align=left;verticalAlign=middle;whiteSpace=wrap;rounded=0;container=0;fontColor=#000000;" parent="QH7dUR0WgAF6dCg62yjj-25" vertex="1">
          <mxGeometry y="20" width="60" height="20" as="geometry" />
        </mxCell>
        <mxCell id="rKWjRTj_p7avdpBBxaFx-147" value="RD2" style="text;html=1;align=right;verticalAlign=middle;whiteSpace=wrap;rounded=0;container=0;fontColor=#000000;" parent="QH7dUR0WgAF6dCg62yjj-25" vertex="1">
          <mxGeometry x="80" y="90" width="40" height="20" as="geometry" />
        </mxCell>
        <mxCell id="rKWjRTj_p7avdpBBxaFx-330" value="" style="triangle;whiteSpace=wrap;html=1;rotation=90;container=0;fontColor=#000000;" parent="QH7dUR0WgAF6dCg62yjj-25" vertex="1">
          <mxGeometry x="75" y="15" width="10" height="20" as="geometry" />
        </mxCell>
        <mxCell id="O00OZB_N-vknSkEfnoMU-7" value="" style="endArrow=classic;html=1;rounded=0;entryX=0;entryY=0.5;entryDx=0;entryDy=0;fontColor=#000000;" parent="QH7dUR0WgAF6dCg62yjj-25" target="rKWjRTj_p7avdpBBxaFx-330" edge="1">
          <mxGeometry width="50" height="50" relative="1" as="geometry">
            <mxPoint x="80" as="sourcePoint" />
            <mxPoint x="120" y="120" as="targetPoint" />
          </mxGeometry>
        </mxCell>
        <mxCell id="rKWjRTj_p7avdpBBxaFx-308" style="edgeStyle=orthogonalEdgeStyle;rounded=0;orthogonalLoop=1;jettySize=auto;html=1;entryX=0;entryY=0.5;entryDx=0;entryDy=0;jumpStyle=arc;exitX=1;exitY=0.5;exitDx=0;exitDy=0;fontColor=#000000;" parent="rKWjRTj_p7avdpBBxaFx-1" source="rKWjRTj_p7avdpBBxaFx-147" edge="1" target="JdxsYVur4gZCgjobztrS-146">
          <mxGeometry relative="1" as="geometry">
            <Array as="points">
              <mxPoint x="1270" y="650" />
              <mxPoint x="1270" y="660" />
            </Array>
            <mxPoint x="1310" y="655" as="targetPoint" />
          </mxGeometry>
        </mxCell>
        <mxCell id="JdxsYVur4gZCgjobztrS-151" value="RD2" style="edgeLabel;html=1;align=center;verticalAlign=middle;resizable=0;points=[];" vertex="1" connectable="0" parent="rKWjRTj_p7avdpBBxaFx-308">
          <mxGeometry x="0.8523" y="-1" relative="1" as="geometry">
            <mxPoint x="2" y="-1" as="offset" />
          </mxGeometry>
        </mxCell>
        <mxCell id="rKWjRTj_p7avdpBBxaFx-90" style="edgeStyle=orthogonalEdgeStyle;rounded=0;orthogonalLoop=1;jettySize=auto;html=1;exitX=1;exitY=0.5;exitDx=0;exitDy=0;entryX=0;entryY=0.5;entryDx=0;entryDy=0;jumpStyle=arc;jumpSize=6;fontColor=#000000;" parent="rKWjRTj_p7avdpBBxaFx-1" source="BcOnm3LyP_LG9oRJOaX2-1" edge="1" target="JdxsYVur4gZCgjobztrS-145">
          <mxGeometry relative="1" as="geometry">
            <Array as="points">
              <mxPoint x="740" y="650" />
              <mxPoint x="740" y="720" />
              <mxPoint x="1000" y="720" />
              <mxPoint x="1000" y="660" />
              <mxPoint x="1260" y="660" />
              <mxPoint x="1260" y="680" />
            </Array>
            <mxPoint x="1310" y="675" as="targetPoint" />
            <mxPoint x="710" y="670" as="sourcePoint" />
          </mxGeometry>
        </mxCell>
        <mxCell id="DWYiua4rObmU89wduKeO-6" value="ALU" style="edgeLabel;html=1;align=center;verticalAlign=middle;resizable=0;points=[];fontColor=#000000;" parent="rKWjRTj_p7avdpBBxaFx-90" vertex="1" connectable="0">
          <mxGeometry x="-0.8074" y="1" relative="1" as="geometry">
            <mxPoint x="-1" y="-9" as="offset" />
          </mxGeometry>
        </mxCell>
        <mxCell id="JdxsYVur4gZCgjobztrS-152" value="imm" style="edgeLabel;html=1;align=center;verticalAlign=middle;resizable=0;points=[];" vertex="1" connectable="0" parent="rKWjRTj_p7avdpBBxaFx-90">
          <mxGeometry x="0.925" relative="1" as="geometry">
            <mxPoint x="1" as="offset" />
          </mxGeometry>
        </mxCell>
        <mxCell id="-K79wRiN6wr9RuviuwhO-14" style="edgeStyle=orthogonalEdgeStyle;rounded=0;orthogonalLoop=1;jettySize=auto;html=1;entryX=0;entryY=0.5;entryDx=0;entryDy=0;exitX=1;exitY=0.5;exitDx=0;exitDy=0;jumpStyle=arc;fontColor=#000000;" parent="rKWjRTj_p7avdpBBxaFx-1" source="JdxsYVur4gZCgjobztrS-63" target="rKWjRTj_p7avdpBBxaFx-169" edge="1">
          <mxGeometry relative="1" as="geometry">
            <Array as="points">
              <mxPoint x="980" y="860" />
              <mxPoint x="980" y="1090" />
              <mxPoint x="1560" y="1090" />
              <mxPoint x="1560" y="900" />
            </Array>
            <mxPoint x="930" y="820" as="sourcePoint" />
          </mxGeometry>
        </mxCell>
        <mxCell id="-K79wRiN6wr9RuviuwhO-20" value="" style="group;fontColor=#000000;" parent="rKWjRTj_p7avdpBBxaFx-1" vertex="1" connectable="0">
          <mxGeometry x="1350" y="560" width="20" height="80" as="geometry" />
        </mxCell>
        <mxCell id="-K79wRiN6wr9RuviuwhO-21" value="" style="shape=trapezoid;perimeter=trapezoidPerimeter;whiteSpace=wrap;html=1;fixedSize=1;shadow=1;strokeColor=#666666;align=center;verticalAlign=middle;fontFamily=Helvetica;fontSize=18;fillColor=#f5f5f5;rotation=90;fontColor=#000000;" parent="-K79wRiN6wr9RuviuwhO-20" vertex="1">
          <mxGeometry x="-30" y="30" width="80" height="20" as="geometry" />
        </mxCell>
        <mxCell id="-K79wRiN6wr9RuviuwhO-22" value="10" style="text;html=1;align=left;verticalAlign=middle;whiteSpace=wrap;rounded=0;container=0;fontColor=#000000;" parent="-K79wRiN6wr9RuviuwhO-20" vertex="1">
          <mxGeometry y="30" width="20" height="20" as="geometry" />
        </mxCell>
        <mxCell id="-K79wRiN6wr9RuviuwhO-23" value="11" style="text;html=1;align=left;verticalAlign=middle;whiteSpace=wrap;rounded=0;container=0;fontColor=#000000;" parent="-K79wRiN6wr9RuviuwhO-20" vertex="1">
          <mxGeometry y="50" width="20" height="20" as="geometry" />
        </mxCell>
        <mxCell id="-K79wRiN6wr9RuviuwhO-24" value="01" style="text;html=1;align=left;verticalAlign=middle;whiteSpace=wrap;rounded=0;container=0;fontColor=#000000;" parent="-K79wRiN6wr9RuviuwhO-20" vertex="1">
          <mxGeometry y="10" width="20" height="20" as="geometry" />
        </mxCell>
        <mxCell id="-K79wRiN6wr9RuviuwhO-31" style="edgeStyle=orthogonalEdgeStyle;rounded=0;orthogonalLoop=1;jettySize=auto;html=1;entryX=0;entryY=0.5;entryDx=0;entryDy=0;jumpStyle=arc;fontColor=#000000;" parent="rKWjRTj_p7avdpBBxaFx-1" source="-K79wRiN6wr9RuviuwhO-30" target="-K79wRiN6wr9RuviuwhO-23" edge="1">
          <mxGeometry relative="1" as="geometry">
            <Array as="points">
              <mxPoint x="1050" y="530" />
              <mxPoint x="1050" y="620" />
            </Array>
          </mxGeometry>
        </mxCell>
        <mxCell id="-K79wRiN6wr9RuviuwhO-32" value="rs1" style="edgeLabel;html=1;align=center;verticalAlign=middle;resizable=0;points=[];fontColor=#000000;" parent="-K79wRiN6wr9RuviuwhO-31" vertex="1" connectable="0">
          <mxGeometry x="0.8146" y="-1" relative="1" as="geometry">
            <mxPoint x="9" y="-1" as="offset" />
          </mxGeometry>
        </mxCell>
        <mxCell id="-K79wRiN6wr9RuviuwhO-30" value="" style="shape=waypoint;sketch=0;size=6;pointerEvents=1;points=[];fillColor=none;resizable=0;rotatable=0;perimeter=centerPerimeter;snapToPoint=1;fontColor=#000000;" parent="rKWjRTj_p7avdpBBxaFx-1" vertex="1">
          <mxGeometry x="800" y="520" width="20" height="20" as="geometry" />
        </mxCell>
        <mxCell id="-K79wRiN6wr9RuviuwhO-34" style="edgeStyle=orthogonalEdgeStyle;rounded=0;orthogonalLoop=1;jettySize=auto;html=1;entryX=0;entryY=0.5;entryDx=0;entryDy=0;jumpStyle=arc;fontColor=#000000;" parent="rKWjRTj_p7avdpBBxaFx-1" source="-K79wRiN6wr9RuviuwhO-33" edge="1" target="JdxsYVur4gZCgjobztrS-148">
          <mxGeometry relative="1" as="geometry">
            <Array as="points">
              <mxPoint x="980" y="670" />
              <mxPoint x="1250" y="670" />
              <mxPoint x="1250" y="720" />
            </Array>
            <mxPoint x="1310" y="715" as="targetPoint" />
          </mxGeometry>
        </mxCell>
        <mxCell id="JdxsYVur4gZCgjobztrS-154" value="CSR" style="edgeLabel;html=1;align=center;verticalAlign=middle;resizable=0;points=[];" vertex="1" connectable="0" parent="-K79wRiN6wr9RuviuwhO-34">
          <mxGeometry x="0.8857" relative="1" as="geometry">
            <mxPoint x="3" as="offset" />
          </mxGeometry>
        </mxCell>
        <mxCell id="-K79wRiN6wr9RuviuwhO-33" value="" style="shape=waypoint;sketch=0;size=6;pointerEvents=1;points=[];fillColor=none;resizable=0;rotatable=0;perimeter=centerPerimeter;snapToPoint=1;fontColor=#000000;" parent="rKWjRTj_p7avdpBBxaFx-1" vertex="1">
          <mxGeometry x="970" y="850" width="20" height="20" as="geometry" />
        </mxCell>
        <mxCell id="-K79wRiN6wr9RuviuwhO-39" value="" style="shape=waypoint;sketch=0;size=6;pointerEvents=1;points=[];fillColor=none;resizable=0;rotatable=0;perimeter=centerPerimeter;snapToPoint=1;fontColor=#000000;" parent="rKWjRTj_p7avdpBBxaFx-1" vertex="1">
          <mxGeometry x="780" y="720" width="20" height="20" as="geometry" />
        </mxCell>
        <mxCell id="uhy4OhNrzmBWaZpSt0tp-52" style="edgeStyle=orthogonalEdgeStyle;rounded=0;orthogonalLoop=1;jettySize=auto;html=1;entryX=0;entryY=0.5;entryDx=0;entryDy=0;exitX=1;exitY=0.5;exitDx=0;exitDy=0;fontColor=#000000;" parent="rKWjRTj_p7avdpBBxaFx-1" source="uhy4OhNrzmBWaZpSt0tp-68" target="uhy4OhNrzmBWaZpSt0tp-72" edge="1">
          <mxGeometry relative="1" as="geometry">
            <Array as="points">
              <mxPoint x="320" y="600" />
              <mxPoint x="320" y="520" />
            </Array>
          </mxGeometry>
        </mxCell>
        <mxCell id="uhy4OhNrzmBWaZpSt0tp-53" value="" style="group;fontColor=#000000;" parent="rKWjRTj_p7avdpBBxaFx-1" vertex="1" connectable="0">
          <mxGeometry x="200" y="470" width="100" height="160" as="geometry" />
        </mxCell>
        <mxCell id="uhy4OhNrzmBWaZpSt0tp-54" value="&lt;b&gt;I. Cache&lt;/b&gt;" style="whiteSpace=wrap;html=1;shadow=1;fontSize=18;fillColor=#f5f5f5;strokeColor=#666666;fontColor=#000000;" parent="uhy4OhNrzmBWaZpSt0tp-53" vertex="1">
          <mxGeometry width="100" height="110" as="geometry" />
        </mxCell>
        <mxCell id="uhy4OhNrzmBWaZpSt0tp-55" value="PC" style="text;html=1;align=left;verticalAlign=middle;whiteSpace=wrap;rounded=0;fontColor=#000000;" parent="uhy4OhNrzmBWaZpSt0tp-53" vertex="1">
          <mxGeometry y="60" width="20" height="20" as="geometry" />
        </mxCell>
        <mxCell id="uhy4OhNrzmBWaZpSt0tp-56" value="IC_RD" style="text;html=1;align=center;verticalAlign=middle;whiteSpace=wrap;rounded=0;fontColor=#000000;" parent="uhy4OhNrzmBWaZpSt0tp-53" vertex="1">
          <mxGeometry x="60" y="20" width="40" height="20" as="geometry" />
        </mxCell>
        <mxCell id="uhy4OhNrzmBWaZpSt0tp-58" value="I.U_Data" style="text;html=1;align=left;verticalAlign=middle;whiteSpace=wrap;rounded=0;fontColor=#000000;" parent="uhy4OhNrzmBWaZpSt0tp-53" vertex="1">
          <mxGeometry width="60" height="20" as="geometry" />
        </mxCell>
        <mxCell id="uhy4OhNrzmBWaZpSt0tp-60" value="IC_Status" style="text;html=1;align=right;verticalAlign=middle;whiteSpace=wrap;rounded=0;fontColor=#000000;" parent="uhy4OhNrzmBWaZpSt0tp-53" vertex="1">
          <mxGeometry x="30" y="90" width="70" height="20" as="geometry" />
        </mxCell>
        <mxCell id="uhy4OhNrzmBWaZpSt0tp-62" value="" style="shape=waypoint;sketch=0;size=6;pointerEvents=1;points=[];fillColor=none;resizable=0;rotatable=0;perimeter=centerPerimeter;snapToPoint=1;fontColor=#000000;" parent="rKWjRTj_p7avdpBBxaFx-1" vertex="1">
          <mxGeometry x="310" y="510" width="20" height="20" as="geometry" />
        </mxCell>
        <mxCell id="uhy4OhNrzmBWaZpSt0tp-64" style="edgeStyle=orthogonalEdgeStyle;rounded=0;orthogonalLoop=1;jettySize=auto;html=1;entryX=0;entryY=0.5;entryDx=0;entryDy=0;jumpStyle=arc;fontColor=#000000;" parent="rKWjRTj_p7avdpBBxaFx-1" source="uhy4OhNrzmBWaZpSt0tp-62" target="uhy4OhNrzmBWaZpSt0tp-58" edge="1">
          <mxGeometry relative="1" as="geometry">
            <Array as="points">
              <mxPoint x="320" y="440" />
              <mxPoint x="180" y="440" />
              <mxPoint x="180" y="480" />
            </Array>
          </mxGeometry>
        </mxCell>
        <mxCell id="uhy4OhNrzmBWaZpSt0tp-65" value="" style="group;fillColor=#f5f5f5;fontColor=#000000;strokeColor=#666666;" parent="rKWjRTj_p7avdpBBxaFx-1" vertex="1" connectable="0">
          <mxGeometry x="210" y="590" width="80" height="80" as="geometry" />
        </mxCell>
        <mxCell id="uhy4OhNrzmBWaZpSt0tp-66" value="&lt;b&gt;I. Mem&lt;/b&gt;" style="whiteSpace=wrap;html=1;shadow=1;fontSize=18;fillColor=#f5f5f5;strokeColor=#666666;fontColor=#000000;" parent="uhy4OhNrzmBWaZpSt0tp-65" vertex="1">
          <mxGeometry width="80" height="80" as="geometry" />
        </mxCell>
        <mxCell id="uhy4OhNrzmBWaZpSt0tp-67" value="PC" style="text;html=1;align=left;verticalAlign=middle;whiteSpace=wrap;rounded=0;fontColor=#000000;" parent="uhy4OhNrzmBWaZpSt0tp-65" vertex="1">
          <mxGeometry width="20" height="20" as="geometry" />
        </mxCell>
        <mxCell id="uhy4OhNrzmBWaZpSt0tp-68" value="IM_RD" style="text;html=1;align=center;verticalAlign=middle;whiteSpace=wrap;rounded=0;fontColor=#000000;" parent="uhy4OhNrzmBWaZpSt0tp-65" vertex="1">
          <mxGeometry x="40" width="40" height="20" as="geometry" />
        </mxCell>
        <mxCell id="uhy4OhNrzmBWaZpSt0tp-69" style="edgeStyle=orthogonalEdgeStyle;rounded=0;orthogonalLoop=1;jettySize=auto;html=1;entryX=0;entryY=0.5;entryDx=0;entryDy=0;exitX=1;exitY=0.5;exitDx=0;exitDy=0;jumpStyle=arc;fontColor=#000000;" parent="rKWjRTj_p7avdpBBxaFx-1" source="uhy4OhNrzmBWaZpSt0tp-56" target="uhy4OhNrzmBWaZpSt0tp-71" edge="1">
          <mxGeometry relative="1" as="geometry">
            <Array as="points">
              <mxPoint x="300" y="500" />
              <mxPoint x="300" y="500" />
            </Array>
          </mxGeometry>
        </mxCell>
        <mxCell id="uhy4OhNrzmBWaZpSt0tp-70" value="" style="shape=trapezoid;perimeter=trapezoidPerimeter;whiteSpace=wrap;html=1;fixedSize=1;shadow=1;strokeColor=#666666;align=center;verticalAlign=middle;fontFamily=Helvetica;fontSize=18;fillColor=#f5f5f5;rotation=90;container=0;fontColor=#000000;" parent="rKWjRTj_p7avdpBBxaFx-1" vertex="1">
          <mxGeometry x="317.17583104223974" y="499.50052497375134" width="66.65333666583318" height="20.99895005249739" as="geometry" />
        </mxCell>
        <mxCell id="uhy4OhNrzmBWaZpSt0tp-71" value="01" style="text;html=1;align=left;verticalAlign=middle;whiteSpace=wrap;rounded=0;container=0;fontColor=#000000;" parent="rKWjRTj_p7avdpBBxaFx-1" vertex="1">
          <mxGeometry x="340.00000000000006" y="490" width="20" height="20" as="geometry" />
        </mxCell>
        <mxCell id="uhy4OhNrzmBWaZpSt0tp-72" value="10" style="text;html=1;align=left;verticalAlign=middle;whiteSpace=wrap;rounded=0;container=0;fontColor=#000000;" parent="rKWjRTj_p7avdpBBxaFx-1" vertex="1">
          <mxGeometry x="340.00000000000006" y="510" width="20" height="20" as="geometry" />
        </mxCell>
        <mxCell id="uhy4OhNrzmBWaZpSt0tp-73" value="" style="edgeStyle=elbowEdgeStyle;rounded=0;html=1;startArrow=none;startFill=0;jettySize=auto;orthogonalLoop=1;fontSize=18;elbow=vertical;entryX=0.75;entryY=0;entryDx=0;entryDy=0;fontColor=#000000;" parent="rKWjRTj_p7avdpBBxaFx-1" edge="1">
          <mxGeometry relative="1" as="geometry">
            <mxPoint x="290.18" y="450" as="sourcePoint" />
            <mxPoint x="290.1000000000001" y="470" as="targetPoint" />
          </mxGeometry>
        </mxCell>
        <mxCell id="uhy4OhNrzmBWaZpSt0tp-74" value="RST" style="text;html=1;align=center;verticalAlign=middle;resizable=1;points=[];autosize=1;strokeColor=none;fillColor=none;movable=1;rotatable=1;deletable=1;editable=1;locked=0;connectable=1;fontColor=#000000;" parent="rKWjRTj_p7avdpBBxaFx-1" vertex="1">
          <mxGeometry x="290.18" y="450" width="30" height="20" as="geometry" />
        </mxCell>
        <mxCell id="uhy4OhNrzmBWaZpSt0tp-75" value="CLK" style="text;html=1;align=center;verticalAlign=middle;resizable=1;points=[];autosize=1;strokeColor=none;fillColor=none;movable=1;rotatable=1;deletable=1;editable=1;locked=0;connectable=1;fontColor=#000000;" parent="rKWjRTj_p7avdpBBxaFx-1" vertex="1">
          <mxGeometry x="240" y="455" width="30" height="10" as="geometry" />
        </mxCell>
        <mxCell id="uhy4OhNrzmBWaZpSt0tp-76" value="" style="triangle;whiteSpace=wrap;html=1;rotation=90;fontColor=#000000;" parent="rKWjRTj_p7avdpBBxaFx-1" vertex="1">
          <mxGeometry x="265.18" y="465" width="10" height="20" as="geometry" />
        </mxCell>
        <mxCell id="uhy4OhNrzmBWaZpSt0tp-77" value="" style="edgeStyle=none;orthogonalLoop=1;jettySize=auto;html=1;rounded=0;fontColor=#000000;" parent="rKWjRTj_p7avdpBBxaFx-1" edge="1">
          <mxGeometry width="100" relative="1" as="geometry">
            <mxPoint x="270.16" y="450" as="sourcePoint" />
            <mxPoint x="270.18" y="470" as="targetPoint" />
            <Array as="points" />
          </mxGeometry>
        </mxCell>
        <mxCell id="uhy4OhNrzmBWaZpSt0tp-142" style="edgeStyle=orthogonalEdgeStyle;rounded=0;orthogonalLoop=1;jettySize=auto;html=1;entryX=0;entryY=0.5;entryDx=0;entryDy=0;jumpStyle=arc;fontColor=#000000;" parent="rKWjRTj_p7avdpBBxaFx-1" source="uhy4OhNrzmBWaZpSt0tp-134" target="JdxsYVur4gZCgjobztrS-109" edge="1">
          <mxGeometry relative="1" as="geometry">
            <mxPoint x="1080" y="930" as="targetPoint" />
          </mxGeometry>
        </mxCell>
        <mxCell id="uhy4OhNrzmBWaZpSt0tp-134" value="" style="shape=waypoint;sketch=0;size=6;pointerEvents=1;points=[];fillColor=none;resizable=0;rotatable=0;perimeter=centerPerimeter;snapToPoint=1;fontColor=#000000;" parent="rKWjRTj_p7avdpBBxaFx-1" vertex="1">
          <mxGeometry x="1000" y="900" width="20" height="20" as="geometry" />
        </mxCell>
        <mxCell id="uhy4OhNrzmBWaZpSt0tp-140" style="edgeStyle=orthogonalEdgeStyle;rounded=0;orthogonalLoop=1;jettySize=auto;html=1;entryX=0;entryY=0.5;entryDx=0;entryDy=0;fontColor=#000000;" parent="rKWjRTj_p7avdpBBxaFx-1" target="uhy4OhNrzmBWaZpSt0tp-138" edge="1">
          <mxGeometry relative="1" as="geometry">
            <Array as="points">
              <mxPoint x="1250" y="1000" />
              <mxPoint x="1250" y="850" />
            </Array>
            <mxPoint x="1200" y="1000.0232558139535" as="sourcePoint" />
          </mxGeometry>
        </mxCell>
        <mxCell id="uhy4OhNrzmBWaZpSt0tp-144" style="edgeStyle=orthogonalEdgeStyle;rounded=0;orthogonalLoop=1;jettySize=auto;html=1;entryX=0;entryY=0.5;entryDx=0;entryDy=0;fontColor=#000000;" parent="rKWjRTj_p7avdpBBxaFx-1" target="JdxsYVur4gZCgjobztrS-16" edge="1">
          <mxGeometry relative="1" as="geometry">
            <Array as="points">
              <mxPoint x="1230" y="940" />
              <mxPoint x="1230" y="680" />
              <mxPoint x="1070" y="680" />
              <mxPoint x="1070" y="730" />
            </Array>
            <mxPoint x="1200" y="940.0232558139535" as="sourcePoint" />
            <mxPoint x="1080" y="750" as="targetPoint" />
          </mxGeometry>
        </mxCell>
        <mxCell id="uhy4OhNrzmBWaZpSt0tp-148" value="" style="group;fontColor=#000000;" parent="rKWjRTj_p7avdpBBxaFx-1" vertex="1" connectable="0">
          <mxGeometry x="200" y="220" width="130" height="170" as="geometry" />
        </mxCell>
        <mxCell id="rKWjRTj_p7avdpBBxaFx-18" value="&lt;div&gt;&lt;b style=&quot;background-color: transparent; color: light-dark(rgb(0, 0, 0), rgb(237, 237, 237));&quot;&gt;&lt;font style=&quot;font-size: 17px;&quot;&gt;&lt;span style=&quot;background-color: transparent;&quot;&gt;PC_Cont&lt;/span&gt;&lt;span style=&quot;background-color: transparent; color: light-dark(rgb(0, 0, 0), rgb(237, 237, 237));&quot;&gt;roller&lt;/span&gt;&lt;/font&gt;&lt;/b&gt;&lt;/div&gt;" style="whiteSpace=wrap;html=1;shadow=1;fontSize=18;fillColor=#f5f5f5;strokeColor=#666666;fontColor=#000000;" parent="uhy4OhNrzmBWaZpSt0tp-148" vertex="1">
          <mxGeometry y="30" width="120" height="140" as="geometry" />
        </mxCell>
        <mxCell id="rKWjRTj_p7avdpBBxaFx-101" value="J_Target" style="text;html=1;align=left;verticalAlign=middle;whiteSpace=wrap;rounded=0;fontColor=#000000;" parent="uhy4OhNrzmBWaZpSt0tp-148" vertex="1">
          <mxGeometry y="150" width="50" height="20" as="geometry" />
        </mxCell>
        <mxCell id="rKWjRTj_p7avdpBBxaFx-112" value="PC" style="text;html=1;align=left;verticalAlign=middle;whiteSpace=wrap;rounded=0;fontColor=#000000;" parent="uhy4OhNrzmBWaZpSt0tp-148" vertex="1">
          <mxGeometry y="110" width="20" height="20" as="geometry" />
        </mxCell>
        <mxCell id="rKWjRTj_p7avdpBBxaFx-113" value="Jump" style="text;html=1;align=left;verticalAlign=middle;whiteSpace=wrap;rounded=0;fontColor=#000000;" parent="uhy4OhNrzmBWaZpSt0tp-148" vertex="1">
          <mxGeometry y="50" width="40" height="20" as="geometry" />
        </mxCell>
        <mxCell id="rKWjRTj_p7avdpBBxaFx-114" value="imm" style="text;html=1;align=left;verticalAlign=middle;whiteSpace=wrap;rounded=0;fontColor=#000000;" parent="uhy4OhNrzmBWaZpSt0tp-148" vertex="1">
          <mxGeometry y="130" width="40" height="20" as="geometry" />
        </mxCell>
        <mxCell id="rKWjRTj_p7avdpBBxaFx-115" value="BTaken" style="text;html=1;align=left;verticalAlign=middle;whiteSpace=wrap;rounded=0;fontColor=#000000;" parent="uhy4OhNrzmBWaZpSt0tp-148" vertex="1">
          <mxGeometry y="70" width="50" height="20" as="geometry" />
        </mxCell>
        <mxCell id="rKWjRTj_p7avdpBBxaFx-116" value="NextPC" style="text;html=1;align=right;verticalAlign=middle;whiteSpace=wrap;rounded=0;fontColor=#000000;" parent="uhy4OhNrzmBWaZpSt0tp-148" vertex="1">
          <mxGeometry x="70" y="130" width="50" height="20" as="geometry" />
        </mxCell>
        <mxCell id="uhy4OhNrzmBWaZpSt0tp-146" value="PC_Stall" style="text;html=1;align=left;verticalAlign=middle;whiteSpace=wrap;rounded=0;container=0;fontColor=#000000;" parent="uhy4OhNrzmBWaZpSt0tp-148" vertex="1">
          <mxGeometry y="30" width="60" height="20" as="geometry" />
        </mxCell>
        <mxCell id="JdxsYVur4gZCgjobztrS-162" value="" style="group" vertex="1" connectable="0" parent="uhy4OhNrzmBWaZpSt0tp-148">
          <mxGeometry x="60" y="10" width="40.18000000000001" height="30" as="geometry" />
        </mxCell>
        <mxCell id="JdxsYVur4gZCgjobztrS-163" value="&lt;div align=&quot;left&quot;&gt;CLK&lt;/div&gt;" style="text;html=1;align=left;verticalAlign=middle;resizable=1;points=[];autosize=1;strokeColor=none;fillColor=none;movable=1;rotatable=1;deletable=1;editable=1;locked=0;connectable=1;fontColor=#000000;" vertex="1" parent="JdxsYVur4gZCgjobztrS-162">
          <mxGeometry width="40" height="20" as="geometry" />
        </mxCell>
        <mxCell id="JdxsYVur4gZCgjobztrS-164" value="" style="triangle;whiteSpace=wrap;html=1;rotation=90;fontColor=#000000;" vertex="1" parent="JdxsYVur4gZCgjobztrS-162">
          <mxGeometry x="25.180000000000007" y="15" width="10" height="20" as="geometry" />
        </mxCell>
        <mxCell id="JdxsYVur4gZCgjobztrS-165" value="" style="edgeStyle=none;orthogonalLoop=1;jettySize=auto;html=1;rounded=0;fontColor=#000000;" edge="1" parent="JdxsYVur4gZCgjobztrS-162">
          <mxGeometry width="100" relative="1" as="geometry">
            <mxPoint x="30.160000000000025" as="sourcePoint" />
            <mxPoint x="30.180000000000007" y="20" as="targetPoint" />
            <Array as="points" />
          </mxGeometry>
        </mxCell>
        <mxCell id="uhy4OhNrzmBWaZpSt0tp-150" value="" style="group;fontColor=#000000;" parent="rKWjRTj_p7avdpBBxaFx-1" vertex="1" connectable="0">
          <mxGeometry x="60" y="490" width="80" height="130" as="geometry" />
        </mxCell>
        <mxCell id="rKWjRTj_p7avdpBBxaFx-219" value="&lt;b&gt;Program&lt;/b&gt;&lt;div&gt;&lt;b&gt;Counter&lt;/b&gt;&lt;/div&gt;" style="whiteSpace=wrap;html=1;shadow=1;fontSize=18;fillColor=#f5f5f5;strokeColor=#666666;fontColor=#000000;" parent="uhy4OhNrzmBWaZpSt0tp-150" vertex="1">
          <mxGeometry y="30" width="80" height="100" as="geometry" />
        </mxCell>
        <mxCell id="rKWjRTj_p7avdpBBxaFx-220" value="NextPC" style="text;html=1;align=left;verticalAlign=middle;whiteSpace=wrap;rounded=0;fontColor=#000000;" parent="uhy4OhNrzmBWaZpSt0tp-150" vertex="1">
          <mxGeometry y="40" width="50" height="20" as="geometry" />
        </mxCell>
        <mxCell id="rKWjRTj_p7avdpBBxaFx-221" value="PC" style="text;html=1;align=right;verticalAlign=middle;whiteSpace=wrap;rounded=0;fontColor=#000000;" parent="uhy4OhNrzmBWaZpSt0tp-150" vertex="1">
          <mxGeometry x="60" y="40" width="20" height="20" as="geometry" />
        </mxCell>
        <mxCell id="rKWjRTj_p7avdpBBxaFx-222" value="" style="edgeStyle=elbowEdgeStyle;rounded=0;html=1;startArrow=none;startFill=0;jettySize=auto;orthogonalLoop=1;fontSize=18;elbow=vertical;entryX=0.75;entryY=0;entryDx=0;entryDy=0;fontColor=#000000;" parent="uhy4OhNrzmBWaZpSt0tp-150" edge="1">
          <mxGeometry relative="1" as="geometry">
            <mxPoint x="40" y="10" as="sourcePoint" />
            <mxPoint x="39.92000000000006" y="30" as="targetPoint" />
          </mxGeometry>
        </mxCell>
        <mxCell id="rKWjRTj_p7avdpBBxaFx-223" value="RST" style="text;html=1;align=center;verticalAlign=middle;resizable=1;points=[];autosize=1;strokeColor=none;fillColor=none;movable=1;rotatable=1;deletable=1;editable=1;locked=0;connectable=1;fontColor=#000000;" parent="uhy4OhNrzmBWaZpSt0tp-150" vertex="1">
          <mxGeometry x="40" y="10" width="30" height="20" as="geometry" />
        </mxCell>
        <mxCell id="rKWjRTj_p7avdpBBxaFx-224" value="CLK" style="text;html=1;align=center;verticalAlign=middle;resizable=1;points=[];autosize=1;strokeColor=none;fillColor=none;movable=1;rotatable=1;deletable=1;editable=1;locked=0;connectable=1;fontColor=#000000;" parent="uhy4OhNrzmBWaZpSt0tp-150" vertex="1">
          <mxGeometry x="5" width="30" height="10" as="geometry" />
        </mxCell>
        <mxCell id="rKWjRTj_p7avdpBBxaFx-291" value="" style="triangle;whiteSpace=wrap;html=1;rotation=90;fontColor=#000000;" parent="uhy4OhNrzmBWaZpSt0tp-150" vertex="1">
          <mxGeometry x="15" y="25" width="10" height="20" as="geometry" />
        </mxCell>
        <mxCell id="rKWjRTj_p7avdpBBxaFx-292" value="" style="edgeStyle=none;orthogonalLoop=1;jettySize=auto;html=1;rounded=0;fontColor=#000000;" parent="uhy4OhNrzmBWaZpSt0tp-150" edge="1">
          <mxGeometry width="100" relative="1" as="geometry">
            <mxPoint x="19.980000000000004" y="10" as="sourcePoint" />
            <mxPoint x="20" y="30" as="targetPoint" />
            <Array as="points" />
          </mxGeometry>
        </mxCell>
        <mxCell id="uhy4OhNrzmBWaZpSt0tp-153" value="" style="group;fontColor=#000000;" parent="rKWjRTj_p7avdpBBxaFx-1" vertex="1" connectable="0">
          <mxGeometry x="160" y="750" width="100" height="80" as="geometry" />
        </mxCell>
        <mxCell id="rKWjRTj_p7avdpBBxaFx-75" value="" style="group;fillColor=#f5f5f5;fontColor=#000000;strokeColor=#666666;container=0;" parent="uhy4OhNrzmBWaZpSt0tp-153" vertex="1" connectable="0">
          <mxGeometry x="19.919999999999987" width="80" height="80" as="geometry" />
        </mxCell>
        <mxCell id="rKWjRTj_p7avdpBBxaFx-80" value="" style="endArrow=classic;html=1;rounded=0;entryX=0;entryY=0.5;entryDx=0;entryDy=0;fontColor=#000000;" parent="uhy4OhNrzmBWaZpSt0tp-153" target="rKWjRTj_p7avdpBBxaFx-79" edge="1">
          <mxGeometry width="50" height="50" relative="1" as="geometry">
            <mxPoint y="70" as="sourcePoint" />
            <mxPoint x="39.99999999999997" y="10" as="targetPoint" />
          </mxGeometry>
        </mxCell>
        <mxCell id="rKWjRTj_p7avdpBBxaFx-76" value="&lt;b&gt;PCplus4&lt;/b&gt;" style="whiteSpace=wrap;html=1;shadow=1;fontSize=18;fillColor=#f5f5f5;strokeColor=#666666;fontColor=#000000;container=0;" parent="uhy4OhNrzmBWaZpSt0tp-153" vertex="1">
          <mxGeometry x="19.919999999999987" width="80" height="80" as="geometry" />
        </mxCell>
        <mxCell id="rKWjRTj_p7avdpBBxaFx-77" value="PC" style="text;html=1;align=left;verticalAlign=middle;whiteSpace=wrap;rounded=0;container=0;fontColor=#000000;" parent="uhy4OhNrzmBWaZpSt0tp-153" vertex="1">
          <mxGeometry x="19.919999999999987" width="20" height="20" as="geometry" />
        </mxCell>
        <mxCell id="rKWjRTj_p7avdpBBxaFx-78" value="PC+4" style="text;html=1;align=right;verticalAlign=middle;whiteSpace=wrap;rounded=0;container=0;fontColor=#000000;" parent="uhy4OhNrzmBWaZpSt0tp-153" vertex="1">
          <mxGeometry x="49.91999999999999" width="50" height="20" as="geometry" />
        </mxCell>
        <mxCell id="rKWjRTj_p7avdpBBxaFx-79" value="4" style="text;html=1;align=left;verticalAlign=middle;whiteSpace=wrap;rounded=0;container=0;fontColor=#000000;" parent="uhy4OhNrzmBWaZpSt0tp-153" vertex="1">
          <mxGeometry x="19.919999999999987" y="60" width="10" height="20" as="geometry" />
        </mxCell>
        <mxCell id="uhy4OhNrzmBWaZpSt0tp-185" value="" style="group;fontColor=#000000;" parent="rKWjRTj_p7avdpBBxaFx-1" vertex="1" connectable="0">
          <mxGeometry x="1580" y="810" width="100" height="180" as="geometry" />
        </mxCell>
        <mxCell id="rKWjRTj_p7avdpBBxaFx-165" value="&lt;div&gt;&lt;br&gt;&lt;/div&gt;" style="text;html=1;align=center;verticalAlign=middle;whiteSpace=wrap;rounded=0;fontFamily=Helvetica;fontSize=18;fontColor=#000000;container=0;" parent="uhy4OhNrzmBWaZpSt0tp-185" vertex="1">
          <mxGeometry y="70" width="60" height="30" as="geometry" />
        </mxCell>
        <mxCell id="rKWjRTj_p7avdpBBxaFx-166" value="" style="shape=trapezoid;perimeter=trapezoidPerimeter;whiteSpace=wrap;html=1;fixedSize=1;shadow=1;strokeColor=#666666;align=center;verticalAlign=middle;fontFamily=Helvetica;fontSize=18;fillColor=#f5f5f5;rotation=90;container=0;fontColor=#000000;" parent="uhy4OhNrzmBWaZpSt0tp-185" vertex="1">
          <mxGeometry x="-40" y="40" width="180" height="100" as="geometry" />
        </mxCell>
        <mxCell id="rKWjRTj_p7avdpBBxaFx-167" value="&lt;span style=&quot;font-size: 18px;&quot;&gt;001&lt;/span&gt;" style="text;html=1;align=left;verticalAlign=middle;whiteSpace=wrap;rounded=0;container=0;fontColor=#000000;" parent="uhy4OhNrzmBWaZpSt0tp-185" vertex="1">
          <mxGeometry y="20" width="30" height="20" as="geometry" />
        </mxCell>
        <mxCell id="rKWjRTj_p7avdpBBxaFx-168" value="&lt;span style=&quot;font-size: 18px;&quot;&gt;010&lt;/span&gt;" style="text;html=1;align=left;verticalAlign=middle;whiteSpace=wrap;rounded=0;container=0;fontColor=#000000;" parent="uhy4OhNrzmBWaZpSt0tp-185" vertex="1">
          <mxGeometry y="50" width="40" height="20" as="geometry" />
        </mxCell>
        <mxCell id="rKWjRTj_p7avdpBBxaFx-169" value="&lt;span style=&quot;font-size: 18px;&quot;&gt;011&lt;/span&gt;" style="text;html=1;align=left;verticalAlign=middle;whiteSpace=wrap;rounded=0;container=0;fontColor=#000000;" parent="uhy4OhNrzmBWaZpSt0tp-185" vertex="1">
          <mxGeometry y="70" width="30" height="40" as="geometry" />
        </mxCell>
        <mxCell id="rKWjRTj_p7avdpBBxaFx-170" value="&lt;font style=&quot;font-size: 10px;&quot;&gt;D. Memory&lt;/font&gt;" style="text;html=1;align=left;verticalAlign=middle;whiteSpace=wrap;rounded=0;container=0;fontColor=#000000;" parent="uhy4OhNrzmBWaZpSt0tp-185" vertex="1">
          <mxGeometry x="40" y="20" width="60" height="20" as="geometry" />
        </mxCell>
        <mxCell id="rKWjRTj_p7avdpBBxaFx-171" value="&lt;font style=&quot;font-size: 10px;&quot;&gt;ALU result&lt;/font&gt;" style="text;html=1;align=left;verticalAlign=middle;whiteSpace=wrap;rounded=0;container=0;fontColor=#000000;" parent="uhy4OhNrzmBWaZpSt0tp-185" vertex="1">
          <mxGeometry x="40" y="50" width="60" height="20" as="geometry" />
        </mxCell>
        <mxCell id="rKWjRTj_p7avdpBBxaFx-172" value="&lt;span style=&quot;font-size: 10px;&quot;&gt;CSR_RD&lt;/span&gt;" style="text;html=1;align=left;verticalAlign=middle;whiteSpace=wrap;rounded=0;container=0;fontColor=#000000;" parent="uhy4OhNrzmBWaZpSt0tp-185" vertex="1">
          <mxGeometry x="40" y="80" width="60" height="20" as="geometry" />
        </mxCell>
        <mxCell id="rKWjRTj_p7avdpBBxaFx-173" value="&lt;span style=&quot;font-size: 18px;&quot;&gt;100&lt;/span&gt;" style="text;html=1;align=left;verticalAlign=middle;whiteSpace=wrap;rounded=0;container=0;fontColor=#000000;" parent="uhy4OhNrzmBWaZpSt0tp-185" vertex="1">
          <mxGeometry y="100" width="30" height="40" as="geometry" />
        </mxCell>
        <mxCell id="rKWjRTj_p7avdpBBxaFx-174" value="&lt;span style=&quot;font-size: 10px;&quot;&gt;imm(LUI)&lt;/span&gt;" style="text;html=1;align=left;verticalAlign=middle;whiteSpace=wrap;rounded=0;container=0;fontColor=#000000;" parent="uhy4OhNrzmBWaZpSt0tp-185" vertex="1">
          <mxGeometry x="40" y="110" width="60" height="20" as="geometry" />
        </mxCell>
        <mxCell id="Sg_0BgGoRNo6tfmOOr9p-19" value="&lt;span style=&quot;font-size: 18px;&quot;&gt;101&lt;/span&gt;" style="text;html=1;align=left;verticalAlign=middle;whiteSpace=wrap;rounded=0;container=0;fontColor=#000000;" parent="uhy4OhNrzmBWaZpSt0tp-185" vertex="1">
          <mxGeometry y="140" width="30" height="20" as="geometry" />
        </mxCell>
        <mxCell id="Sg_0BgGoRNo6tfmOOr9p-20" value="&lt;span style=&quot;font-size: 10px;&quot;&gt;PC+4&lt;/span&gt;" style="text;html=1;align=left;verticalAlign=middle;whiteSpace=wrap;rounded=0;container=0;fontColor=#000000;" parent="uhy4OhNrzmBWaZpSt0tp-185" vertex="1">
          <mxGeometry x="40" y="140" width="30" height="20" as="geometry" />
        </mxCell>
        <mxCell id="QH7dUR0WgAF6dCg62yjj-28" style="edgeStyle=orthogonalEdgeStyle;rounded=0;orthogonalLoop=1;jettySize=auto;html=1;entryX=0;entryY=0.5;entryDx=0;entryDy=0;jumpStyle=arc;exitX=0.5;exitY=0;exitDx=0;exitDy=0;fontColor=#000000;" parent="rKWjRTj_p7avdpBBxaFx-1" source="uhy4OhNrzmBWaZpSt0tp-136" target="rKWjRTj_p7avdpBBxaFx-258" edge="1">
          <mxGeometry relative="1" as="geometry">
            <Array as="points">
              <mxPoint x="1550" y="840" />
              <mxPoint x="1550" y="230" />
            </Array>
            <mxPoint x="1180" y="750" as="sourcePoint" />
          </mxGeometry>
        </mxCell>
        <mxCell id="rKWjRTj_p7avdpBBxaFx-245" style="edgeStyle=orthogonalEdgeStyle;rounded=0;orthogonalLoop=1;jettySize=auto;html=1;entryX=0;entryY=0.5;entryDx=0;entryDy=0;exitX=1;exitY=0.5;exitDx=0;exitDy=0;jumpStyle=arc;fontColor=#000000;" parent="rKWjRTj_p7avdpBBxaFx-1" source="JdxsYVur4gZCgjobztrS-33" target="rKWjRTj_p7avdpBBxaFx-166" edge="1">
          <mxGeometry relative="1" as="geometry">
            <mxPoint x="1620.0200000000002" y="830" as="targetPoint" />
            <Array as="points">
              <mxPoint x="1350" y="250" />
              <mxPoint x="1350" y="360" />
              <mxPoint x="1630" y="360" />
            </Array>
            <mxPoint x="800" y="250" as="sourcePoint" />
          </mxGeometry>
        </mxCell>
        <mxCell id="rKWjRTj_p7avdpBBxaFx-332" style="edgeStyle=orthogonalEdgeStyle;rounded=0;orthogonalLoop=1;jettySize=auto;html=1;entryX=0;entryY=0.5;entryDx=0;entryDy=0;exitX=1;exitY=0.5;exitDx=0;exitDy=0;jumpStyle=arc;fontColor=#000000;" parent="rKWjRTj_p7avdpBBxaFx-1" source="rKWjRTj_p7avdpBBxaFx-256" target="rKWjRTj_p7avdpBBxaFx-167" edge="1">
          <mxGeometry relative="1" as="geometry">
            <Array as="points">
              <mxPoint x="1690" y="190" />
              <mxPoint x="1690" y="780" />
              <mxPoint x="1560" y="780" />
              <mxPoint x="1560" y="840" />
            </Array>
          </mxGeometry>
        </mxCell>
        <mxCell id="uhy4OhNrzmBWaZpSt0tp-186" value="" style="shape=waypoint;sketch=0;size=6;pointerEvents=1;points=[];fillColor=none;resizable=0;rotatable=0;perimeter=centerPerimeter;snapToPoint=1;fontColor=#000000;" parent="rKWjRTj_p7avdpBBxaFx-1" vertex="1">
          <mxGeometry x="1000" y="1060" width="20" height="20" as="geometry" />
        </mxCell>
        <mxCell id="uhy4OhNrzmBWaZpSt0tp-188" style="edgeStyle=orthogonalEdgeStyle;rounded=0;orthogonalLoop=1;jettySize=auto;html=1;entryX=0;entryY=0.5;entryDx=0;entryDy=0;fontColor=#000000;" parent="rKWjRTj_p7avdpBBxaFx-1" source="uhy4OhNrzmBWaZpSt0tp-187" target="rKWjRTj_p7avdpBBxaFx-260" edge="1">
          <mxGeometry relative="1" as="geometry">
            <Array as="points">
              <mxPoint x="1540" y="410" />
              <mxPoint x="1540" y="210" />
            </Array>
          </mxGeometry>
        </mxCell>
        <mxCell id="uhy4OhNrzmBWaZpSt0tp-187" value="" style="shape=waypoint;sketch=0;size=6;pointerEvents=1;points=[];fillColor=none;resizable=0;rotatable=0;perimeter=centerPerimeter;snapToPoint=1;fontColor=#000000;" parent="rKWjRTj_p7avdpBBxaFx-1" vertex="1">
          <mxGeometry x="1530" y="400" width="20" height="20" as="geometry" />
        </mxCell>
        <mxCell id="QH7dUR0WgAF6dCg62yjj-21" style="edgeStyle=orthogonalEdgeStyle;rounded=0;orthogonalLoop=1;jettySize=auto;html=1;entryX=0;entryY=0.5;entryDx=0;entryDy=0;exitX=0.5;exitY=0;exitDx=0;exitDy=0;jumpStyle=arc;fontColor=#000000;" parent="rKWjRTj_p7avdpBBxaFx-1" source="uhy4OhNrzmBWaZpSt0tp-70" target="rKWjRTj_p7avdpBBxaFx-181" edge="1">
          <mxGeometry relative="1" as="geometry">
            <mxPoint x="330" y="530.0000000000002" as="sourcePoint" />
          </mxGeometry>
        </mxCell>
        <mxCell id="-K79wRiN6wr9RuviuwhO-36" style="edgeStyle=orthogonalEdgeStyle;rounded=0;orthogonalLoop=1;jettySize=auto;html=1;entryX=0;entryY=0.5;entryDx=0;entryDy=0;jumpStyle=arc;fontColor=#000000;" parent="rKWjRTj_p7avdpBBxaFx-1" source="rKWjRTj_p7avdpBBxaFx-19" target="JdxsYVur4gZCgjobztrS-62" edge="1">
          <mxGeometry relative="1" as="geometry">
            <Array as="points">
              <mxPoint x="1450" y="1070" />
              <mxPoint x="950" y="1070" />
              <mxPoint x="950" y="900" />
              <mxPoint x="840" y="900" />
              <mxPoint x="840" y="880" />
            </Array>
            <mxPoint x="810" y="880" as="targetPoint" />
          </mxGeometry>
        </mxCell>
        <mxCell id="uhy4OhNrzmBWaZpSt0tp-200" style="edgeStyle=orthogonalEdgeStyle;rounded=0;orthogonalLoop=1;jettySize=auto;html=1;entryX=1;entryY=0.5;entryDx=0;entryDy=0;exitX=1;exitY=0.5;exitDx=0;exitDy=0;jumpStyle=arc;fontColor=#000000;" parent="rKWjRTj_p7avdpBBxaFx-1" source="JdxsYVur4gZCgjobztrS-111" target="JdxsYVur4gZCgjobztrS-73" edge="1">
          <mxGeometry relative="1" as="geometry">
            <Array as="points">
              <mxPoint x="1230" y="1010" />
              <mxPoint x="1230" y="1060" />
              <mxPoint x="940" y="1060" />
              <mxPoint x="940" y="1020" />
            </Array>
            <mxPoint x="1200" y="1040" as="sourcePoint" />
            <mxPoint x="710" y="1040" as="targetPoint" />
          </mxGeometry>
        </mxCell>
        <mxCell id="uhy4OhNrzmBWaZpSt0tp-197" style="edgeStyle=orthogonalEdgeStyle;rounded=0;orthogonalLoop=1;jettySize=auto;html=1;entryX=1;entryY=0.5;entryDx=0;entryDy=0;jumpStyle=arc;exitX=1;exitY=0.5;exitDx=0;exitDy=0;fontColor=#000000;" parent="rKWjRTj_p7avdpBBxaFx-1" target="JdxsYVur4gZCgjobztrS-121" edge="1">
          <mxGeometry relative="1" as="geometry">
            <Array as="points">
              <mxPoint x="970" y="960" />
              <mxPoint x="970" y="880" />
              <mxPoint x="1020" y="880" />
              <mxPoint x="1020" y="840" />
              <mxPoint x="1040" y="840" />
            </Array>
            <mxPoint x="710" y="960" as="sourcePoint" />
            <mxPoint x="1080" y="910" as="targetPoint" />
          </mxGeometry>
        </mxCell>
        <mxCell id="uhy4OhNrzmBWaZpSt0tp-202" style="edgeStyle=orthogonalEdgeStyle;rounded=0;orthogonalLoop=1;jettySize=auto;html=1;entryX=1;entryY=0.5;entryDx=0;entryDy=0;jumpStyle=arc;exitX=1;exitY=0.5;exitDx=0;exitDy=0;fontColor=#000000;" parent="rKWjRTj_p7avdpBBxaFx-1" source="JdxsYVur4gZCgjobztrS-74" target="uhy4OhNrzmBWaZpSt0tp-136" edge="1">
          <mxGeometry relative="1" as="geometry">
            <Array as="points">
              <mxPoint x="930" y="1040" />
              <mxPoint x="930" y="1130" />
              <mxPoint x="1280" y="1130" />
            </Array>
            <mxPoint x="710" y="1060" as="sourcePoint" />
          </mxGeometry>
        </mxCell>
        <mxCell id="uhy4OhNrzmBWaZpSt0tp-203" value="" style="shape=waypoint;sketch=0;size=6;pointerEvents=1;points=[];fillColor=none;resizable=0;rotatable=0;perimeter=centerPerimeter;snapToPoint=1;fontColor=#000000;" parent="rKWjRTj_p7avdpBBxaFx-1" vertex="1">
          <mxGeometry x="1230" y="820" width="20" height="20" as="geometry" />
        </mxCell>
        <mxCell id="JdxsYVur4gZCgjobztrS-7" style="edgeStyle=orthogonalEdgeStyle;rounded=0;orthogonalLoop=1;jettySize=auto;html=1;entryX=0;entryY=0.5;entryDx=0;entryDy=0;" edge="1" parent="rKWjRTj_p7avdpBBxaFx-1" source="JdxsYVur4gZCgjobztrS-6" target="JdxsYVur4gZCgjobztrS-147">
          <mxGeometry relative="1" as="geometry">
            <mxPoint x="1310" y="695" as="targetPoint" />
            <Array as="points">
              <mxPoint x="1260" y="700" />
            </Array>
          </mxGeometry>
        </mxCell>
        <mxCell id="JdxsYVur4gZCgjobztrS-153" value="shamt" style="edgeLabel;html=1;align=center;verticalAlign=middle;resizable=0;points=[];" vertex="1" connectable="0" parent="JdxsYVur4gZCgjobztrS-7">
          <mxGeometry relative="1" as="geometry">
            <mxPoint x="7" as="offset" />
          </mxGeometry>
        </mxCell>
        <mxCell id="JdxsYVur4gZCgjobztrS-6" value="" style="shape=waypoint;sketch=0;size=6;pointerEvents=1;points=[];fillColor=none;resizable=0;rotatable=0;perimeter=centerPerimeter;snapToPoint=1;" vertex="1" parent="rKWjRTj_p7avdpBBxaFx-1">
          <mxGeometry x="1250" y="670" width="20" height="20" as="geometry" />
        </mxCell>
        <mxCell id="JdxsYVur4gZCgjobztrS-9" value="" style="group" vertex="1" connectable="0" parent="rKWjRTj_p7avdpBBxaFx-1">
          <mxGeometry x="1090" y="680" width="120" height="160" as="geometry" />
        </mxCell>
        <mxCell id="JdxsYVur4gZCgjobztrS-10" value="&lt;div&gt;&lt;b&gt;&lt;font style=&quot;font-size: 17px;&quot;&gt;&lt;br&gt;&lt;/font&gt;&lt;/b&gt;&lt;/div&gt;&lt;div&gt;&lt;b&gt;&lt;font style=&quot;font-size: 17px;&quot;&gt;&lt;br&gt;&lt;/font&gt;&lt;/b&gt;&lt;/div&gt;&lt;div&gt;&lt;b&gt;&lt;font style=&quot;font-size: 17px;&quot;&gt;Data&lt;/font&gt;&lt;/b&gt;&lt;/div&gt;&lt;div&gt;&lt;b&gt;&lt;font style=&quot;font-size: 17px;&quot;&gt;Memory&lt;/font&gt;&lt;/b&gt;&lt;/div&gt;" style="whiteSpace=wrap;html=1;shadow=1;fontSize=18;fillColor=#f5f5f5;strokeColor=#666666;container=0;fontColor=#000000;align=right;" vertex="1" parent="JdxsYVur4gZCgjobztrS-9">
          <mxGeometry y="40" width="120" height="120" as="geometry" />
        </mxCell>
        <mxCell id="JdxsYVur4gZCgjobztrS-11" value="DM_Addr" style="text;html=1;align=left;verticalAlign=middle;whiteSpace=wrap;rounded=0;container=0;fontColor=#000000;" vertex="1" parent="JdxsYVur4gZCgjobztrS-9">
          <mxGeometry y="110" width="60" height="20" as="geometry" />
        </mxCell>
        <mxCell id="JdxsYVur4gZCgjobztrS-12" value="MemWrite" style="text;html=1;align=center;verticalAlign=middle;whiteSpace=wrap;rounded=0;container=0;fontColor=#000000;" vertex="1" parent="JdxsYVur4gZCgjobztrS-9">
          <mxGeometry y="60" width="60" height="20" as="geometry" />
        </mxCell>
        <mxCell id="JdxsYVur4gZCgjobztrS-13" value="MemRead" style="text;html=1;align=center;verticalAlign=middle;whiteSpace=wrap;rounded=0;container=0;fontColor=#000000;" vertex="1" parent="JdxsYVur4gZCgjobztrS-9">
          <mxGeometry y="80" width="60" height="20" as="geometry" />
        </mxCell>
        <mxCell id="JdxsYVur4gZCgjobztrS-14" value="DM_RD" style="text;html=1;align=center;verticalAlign=middle;whiteSpace=wrap;rounded=0;container=0;fontColor=#000000;" vertex="1" parent="JdxsYVur4gZCgjobztrS-9">
          <mxGeometry x="70" y="140" width="50" height="20" as="geometry" />
        </mxCell>
        <mxCell id="JdxsYVur4gZCgjobztrS-15" value="ByteMask" style="text;html=1;align=left;verticalAlign=middle;whiteSpace=wrap;rounded=0;container=0;fontColor=#000000;" vertex="1" parent="JdxsYVur4gZCgjobztrS-9">
          <mxGeometry y="140" width="70" height="20" as="geometry" />
        </mxCell>
        <mxCell id="JdxsYVur4gZCgjobztrS-16" value="WB_Data" style="text;html=1;align=left;verticalAlign=middle;whiteSpace=wrap;rounded=0;container=0;fontColor=#000000;" vertex="1" parent="JdxsYVur4gZCgjobztrS-9">
          <mxGeometry y="40" width="60" height="20" as="geometry" />
        </mxCell>
        <mxCell id="JdxsYVur4gZCgjobztrS-17" value="ReadDone" style="text;html=1;align=center;verticalAlign=middle;whiteSpace=wrap;rounded=0;container=0;fillColor=none;strokeColor=none;" vertex="1" parent="JdxsYVur4gZCgjobztrS-9">
          <mxGeometry x="60" y="50" width="60" height="20" as="geometry" />
        </mxCell>
        <mxCell id="JdxsYVur4gZCgjobztrS-18" value="WriteDone" style="text;html=1;align=right;verticalAlign=middle;whiteSpace=wrap;rounded=0;container=0;fillColor=none;strokeColor=none;" vertex="1" parent="JdxsYVur4gZCgjobztrS-9">
          <mxGeometry x="60" y="70" width="60" height="20" as="geometry" />
        </mxCell>
        <mxCell id="JdxsYVur4gZCgjobztrS-19" value="" style="group;rotation=90;" vertex="1" connectable="0" parent="JdxsYVur4gZCgjobztrS-9">
          <mxGeometry x="70" y="15" width="40" height="30" as="geometry" />
        </mxCell>
        <mxCell id="JdxsYVur4gZCgjobztrS-20" value="" style="triangle;whiteSpace=wrap;html=1;rotation=90;container=0;fontColor=#000000;" vertex="1" parent="JdxsYVur4gZCgjobztrS-19">
          <mxGeometry x="20" y="20" width="10" height="20" as="geometry" />
        </mxCell>
        <mxCell id="JdxsYVur4gZCgjobztrS-21" value="" style="endArrow=classic;html=1;rounded=0;entryX=0;entryY=0.5;entryDx=0;entryDy=0;fontColor=#000000;" edge="1" parent="JdxsYVur4gZCgjobztrS-19" target="JdxsYVur4gZCgjobztrS-20">
          <mxGeometry width="50" height="50" relative="1" as="geometry">
            <mxPoint x="25" y="5" as="sourcePoint" />
            <mxPoint x="-5" y="145" as="targetPoint" />
          </mxGeometry>
        </mxCell>
        <mxCell id="JdxsYVur4gZCgjobztrS-22" value="CLK" style="text;html=1;align=center;verticalAlign=middle;whiteSpace=wrap;rounded=0;container=0;fontColor=#000000;rotation=0;" vertex="1" parent="JdxsYVur4gZCgjobztrS-19">
          <mxGeometry x="-10" y="5" width="30" height="20" as="geometry" />
        </mxCell>
        <mxCell id="JdxsYVur4gZCgjobztrS-27" style="edgeStyle=orthogonalEdgeStyle;rounded=0;orthogonalLoop=1;jettySize=auto;html=1;entryX=0;entryY=0.5;entryDx=0;entryDy=0;" edge="1" parent="rKWjRTj_p7avdpBBxaFx-1" source="JdxsYVur4gZCgjobztrS-26" target="uhy4OhNrzmBWaZpSt0tp-67">
          <mxGeometry relative="1" as="geometry" />
        </mxCell>
        <mxCell id="JdxsYVur4gZCgjobztrS-26" value="" style="shape=waypoint;sketch=0;size=6;pointerEvents=1;points=[];fillColor=none;resizable=0;rotatable=0;perimeter=centerPerimeter;snapToPoint=1;" vertex="1" parent="rKWjRTj_p7avdpBBxaFx-1">
          <mxGeometry x="150" y="590" width="20" height="20" as="geometry" />
        </mxCell>
        <mxCell id="JdxsYVur4gZCgjobztrS-28" value="" style="group" vertex="1" connectable="0" parent="rKWjRTj_p7avdpBBxaFx-1">
          <mxGeometry x="650" y="140" width="160" height="200" as="geometry" />
        </mxCell>
        <mxCell id="JdxsYVur4gZCgjobztrS-29" value="&lt;div&gt;&lt;b&gt;&lt;span style=&quot;background-color: transparent;&quot;&gt;Control&amp;nbsp;&amp;nbsp;&lt;/span&gt;&lt;br&gt;&lt;/b&gt;&lt;/div&gt;&lt;div&gt;&lt;b&gt;Unit&amp;nbsp;&amp;nbsp;&lt;/b&gt;&lt;/div&gt;" style="whiteSpace=wrap;html=1;shadow=1;fontSize=18;fillColor=#f5f5f5;strokeColor=#666666;container=0;fontColor=#000000;" vertex="1" parent="JdxsYVur4gZCgjobztrS-28">
          <mxGeometry width="160" height="200" as="geometry" />
        </mxCell>
        <mxCell id="JdxsYVur4gZCgjobztrS-30" value="ALUsrcA" style="text;html=1;align=center;verticalAlign=middle;whiteSpace=wrap;rounded=0;container=0;fontColor=#000000;" vertex="1" parent="JdxsYVur4gZCgjobztrS-28">
          <mxGeometry x="110" y="60" width="50" height="20" as="geometry" />
        </mxCell>
        <mxCell id="JdxsYVur4gZCgjobztrS-31" value="RegWrite" style="text;html=1;align=right;verticalAlign=middle;whiteSpace=wrap;rounded=0;container=0;fontColor=#000000;" vertex="1" parent="JdxsYVur4gZCgjobztrS-28">
          <mxGeometry x="100" y="160" width="60" height="20" as="geometry" />
        </mxCell>
        <mxCell id="JdxsYVur4gZCgjobztrS-32" value="opcode" style="text;html=1;align=left;verticalAlign=middle;whiteSpace=wrap;rounded=0;container=0;fontColor=#000000;" vertex="1" parent="JdxsYVur4gZCgjobztrS-28">
          <mxGeometry y="70" width="60" height="20" as="geometry" />
        </mxCell>
        <mxCell id="JdxsYVur4gZCgjobztrS-33" value="RegWDsrc" style="text;html=1;align=right;verticalAlign=middle;whiteSpace=wrap;rounded=0;container=0;fontColor=#000000;" vertex="1" parent="JdxsYVur4gZCgjobztrS-28">
          <mxGeometry x="100" y="100" width="60" height="20" as="geometry" />
        </mxCell>
        <mxCell id="JdxsYVur4gZCgjobztrS-34" value="MemRead" style="text;html=1;align=center;verticalAlign=middle;whiteSpace=wrap;rounded=0;container=0;fontColor=#000000;" vertex="1" parent="JdxsYVur4gZCgjobztrS-28">
          <mxGeometry x="100" y="120" width="60" height="20" as="geometry" />
        </mxCell>
        <mxCell id="JdxsYVur4gZCgjobztrS-35" value="ALUsrcB" style="text;html=1;align=center;verticalAlign=middle;whiteSpace=wrap;rounded=0;container=0;fontColor=#000000;" vertex="1" parent="JdxsYVur4gZCgjobztrS-28">
          <mxGeometry x="110" y="80" width="50" height="20" as="geometry" />
        </mxCell>
        <mxCell id="JdxsYVur4gZCgjobztrS-36" value="MemWrite" style="text;html=1;align=center;verticalAlign=middle;whiteSpace=wrap;rounded=0;container=0;fontColor=#000000;" vertex="1" parent="JdxsYVur4gZCgjobztrS-28">
          <mxGeometry x="100" y="140" width="60" height="20" as="geometry" />
        </mxCell>
        <mxCell id="JdxsYVur4gZCgjobztrS-37" value="Branch" style="text;html=1;align=center;verticalAlign=middle;whiteSpace=wrap;rounded=0;container=0;fontColor=#000000;" vertex="1" parent="JdxsYVur4gZCgjobztrS-28">
          <mxGeometry x="120" y="40" width="40" height="20" as="geometry" />
        </mxCell>
        <mxCell id="JdxsYVur4gZCgjobztrS-38" value="Jump" style="text;html=1;align=right;verticalAlign=middle;whiteSpace=wrap;rounded=0;container=0;fontColor=#000000;" vertex="1" parent="JdxsYVur4gZCgjobztrS-28">
          <mxGeometry x="120" y="20" width="40" height="20" as="geometry" />
        </mxCell>
        <mxCell id="JdxsYVur4gZCgjobztrS-39" value="funct3" style="text;html=1;align=left;verticalAlign=middle;whiteSpace=wrap;rounded=0;container=0;fontColor=#000000;" vertex="1" parent="JdxsYVur4gZCgjobztrS-28">
          <mxGeometry y="90" width="40" height="20" as="geometry" />
        </mxCell>
        <mxCell id="JdxsYVur4gZCgjobztrS-40" value="CSR_Write" style="text;html=1;align=right;verticalAlign=middle;whiteSpace=wrap;rounded=0;container=0;fontColor=#000000;" vertex="1" parent="JdxsYVur4gZCgjobztrS-28">
          <mxGeometry x="100" y="180" width="60" height="20" as="geometry" />
        </mxCell>
        <mxCell id="JdxsYVur4gZCgjobztrS-41" value="WriteDone" style="text;html=1;align=left;verticalAlign=middle;whiteSpace=wrap;rounded=0;container=0;fillColor=none;strokeColor=none;" vertex="1" parent="JdxsYVur4gZCgjobztrS-28">
          <mxGeometry y="30" width="70" height="20" as="geometry" />
        </mxCell>
        <mxCell id="JdxsYVur4gZCgjobztrS-42" value="PC_Stall" style="text;html=1;align=right;verticalAlign=middle;whiteSpace=wrap;rounded=0;container=0;fontColor=#000000;" vertex="1" parent="JdxsYVur4gZCgjobztrS-28">
          <mxGeometry x="100" width="60" height="20" as="geometry" />
        </mxCell>
        <mxCell id="JdxsYVur4gZCgjobztrS-43" value="ReadDone" style="text;html=1;align=left;verticalAlign=middle;whiteSpace=wrap;rounded=0;container=0;fillColor=none;strokeColor=none;" vertex="1" parent="JdxsYVur4gZCgjobztrS-28">
          <mxGeometry y="10" width="70" height="20" as="geometry" />
        </mxCell>
        <mxCell id="JdxsYVur4gZCgjobztrS-44" style="edgeStyle=orthogonalEdgeStyle;rounded=0;orthogonalLoop=1;jettySize=auto;html=1;entryX=0;entryY=0.5;entryDx=0;entryDy=0;exitX=1;exitY=0.5;exitDx=0;exitDy=0;" edge="1" parent="rKWjRTj_p7avdpBBxaFx-1" source="JdxsYVur4gZCgjobztrS-42" target="uhy4OhNrzmBWaZpSt0tp-146">
          <mxGeometry relative="1" as="geometry">
            <mxPoint x="166.66666666666663" y="260" as="targetPoint" />
            <Array as="points">
              <mxPoint x="830" y="150" />
              <mxPoint x="830" y="130" />
              <mxPoint x="180" y="130" />
              <mxPoint x="180" y="260" />
            </Array>
          </mxGeometry>
        </mxCell>
        <mxCell id="JdxsYVur4gZCgjobztrS-57" value="" style="group;fontColor=#000000;" vertex="1" connectable="0" parent="rKWjRTj_p7avdpBBxaFx-1">
          <mxGeometry x="860" y="770" width="120" height="120" as="geometry" />
        </mxCell>
        <mxCell id="JdxsYVur4gZCgjobztrS-58" value="RST" style="text;html=1;align=right;verticalAlign=middle;whiteSpace=wrap;rounded=0;container=0;fontColor=#000000;" vertex="1" parent="JdxsYVur4gZCgjobztrS-57">
          <mxGeometry x="90" width="30" height="20" as="geometry" />
        </mxCell>
        <mxCell id="JdxsYVur4gZCgjobztrS-59" value="" style="edgeStyle=none;orthogonalLoop=1;jettySize=auto;html=1;rounded=0;entryX=0;entryY=0.5;entryDx=0;entryDy=0;fontColor=#000000;" edge="1" parent="JdxsYVur4gZCgjobztrS-57" target="JdxsYVur4gZCgjobztrS-65">
          <mxGeometry width="100" relative="1" as="geometry">
            <mxPoint x="71" as="sourcePoint" />
            <mxPoint x="23" y="19.720000000000027" as="targetPoint" />
            <Array as="points" />
          </mxGeometry>
        </mxCell>
        <mxCell id="JdxsYVur4gZCgjobztrS-60" value="&lt;div&gt;&lt;font style=&quot;font-size: 16px;&quot;&gt;&lt;b&gt;&lt;span style=&quot;background-color: transparent;&quot;&gt;CSR&lt;/span&gt;&lt;span style=&quot;background-color: transparent;&quot;&gt;File&lt;/span&gt;&lt;/b&gt;&lt;/font&gt;&lt;/div&gt;" style="whiteSpace=wrap;html=1;shadow=1;fontSize=18;fillColor=#f5f5f5;strokeColor=#666666;container=0;fontColor=#000000;" vertex="1" parent="JdxsYVur4gZCgjobztrS-57">
          <mxGeometry y="20" width="100" height="100" as="geometry" />
        </mxCell>
        <mxCell id="JdxsYVur4gZCgjobztrS-61" value="CSR_Write" style="text;html=1;align=left;verticalAlign=middle;whiteSpace=wrap;rounded=0;container=0;fontColor=#000000;" vertex="1" parent="JdxsYVur4gZCgjobztrS-57">
          <mxGeometry y="40" width="60" height="20" as="geometry" />
        </mxCell>
        <mxCell id="JdxsYVur4gZCgjobztrS-62" value="CSR_WD" style="text;html=1;align=left;verticalAlign=middle;whiteSpace=wrap;rounded=0;container=0;fontColor=#000000;" vertex="1" parent="JdxsYVur4gZCgjobztrS-57">
          <mxGeometry y="100" width="60" height="20" as="geometry" />
        </mxCell>
        <mxCell id="JdxsYVur4gZCgjobztrS-63" value="CSR_RD" style="text;html=1;align=right;verticalAlign=middle;whiteSpace=wrap;rounded=0;container=0;fontColor=#000000;" vertex="1" parent="JdxsYVur4gZCgjobztrS-57">
          <mxGeometry x="40" y="80" width="60" height="20" as="geometry" />
        </mxCell>
        <mxCell id="JdxsYVur4gZCgjobztrS-64" value="CSR_Addr" style="text;html=1;align=left;verticalAlign=middle;whiteSpace=wrap;rounded=0;container=0;fontColor=#000000;" vertex="1" parent="JdxsYVur4gZCgjobztrS-57">
          <mxGeometry y="20" width="60" height="20" as="geometry" />
        </mxCell>
        <mxCell id="JdxsYVur4gZCgjobztrS-65" value="" style="triangle;whiteSpace=wrap;html=1;rotation=90;container=0;fontColor=#000000;" vertex="1" parent="JdxsYVur4gZCgjobztrS-57">
          <mxGeometry x="66" y="15" width="10" height="20" as="geometry" />
        </mxCell>
        <mxCell id="JdxsYVur4gZCgjobztrS-66" value="" style="endArrow=classic;html=1;rounded=0;fontColor=#000000;" edge="1" parent="JdxsYVur4gZCgjobztrS-57">
          <mxGeometry width="50" height="50" relative="1" as="geometry">
            <mxPoint x="90" as="sourcePoint" />
            <mxPoint x="90" y="20" as="targetPoint" />
          </mxGeometry>
        </mxCell>
        <mxCell id="JdxsYVur4gZCgjobztrS-67" value="CLK" style="text;html=1;align=left;verticalAlign=middle;whiteSpace=wrap;rounded=0;container=0;fontColor=#000000;" vertex="1" parent="JdxsYVur4gZCgjobztrS-57">
          <mxGeometry x="40" width="30" height="20" as="geometry" />
        </mxCell>
        <mxCell id="JdxsYVur4gZCgjobztrS-69" value="" style="group" vertex="1" connectable="0" parent="rKWjRTj_p7avdpBBxaFx-1">
          <mxGeometry x="450" y="930" width="260" height="120" as="geometry" />
        </mxCell>
        <mxCell id="JdxsYVur4gZCgjobztrS-70" value="&lt;div&gt;&lt;b&gt;Memory&lt;/b&gt;&lt;/div&gt;&lt;div&gt;&lt;b&gt;Controller&lt;/b&gt;&lt;/div&gt;" style="whiteSpace=wrap;html=1;shadow=1;fontSize=18;fillColor=#f5f5f5;strokeColor=#666666;fontColor=#000000;" vertex="1" parent="JdxsYVur4gZCgjobztrS-69">
          <mxGeometry x="20" y="20" width="240" height="100" as="geometry" />
        </mxCell>
        <mxCell id="JdxsYVur4gZCgjobztrS-71" value="IC_Status" style="text;html=1;align=left;verticalAlign=middle;whiteSpace=wrap;rounded=0;fontColor=#000000;" vertex="1" parent="JdxsYVur4gZCgjobztrS-69">
          <mxGeometry x="20" y="50" width="60" height="20" as="geometry" />
        </mxCell>
        <mxCell id="JdxsYVur4gZCgjobztrS-72" value="IC.IM_MUX" style="text;html=1;align=left;verticalAlign=middle;whiteSpace=wrap;rounded=0;fontColor=#000000;" vertex="1" parent="JdxsYVur4gZCgjobztrS-69">
          <mxGeometry x="20" y="30" width="70" height="20" as="geometry" />
        </mxCell>
        <mxCell id="JdxsYVur4gZCgjobztrS-73" value="DC_Status" style="text;html=1;align=right;verticalAlign=middle;whiteSpace=wrap;rounded=0;fontColor=#000000;" vertex="1" parent="JdxsYVur4gZCgjobztrS-69">
          <mxGeometry x="200" y="80" width="60" height="20" as="geometry" />
        </mxCell>
        <mxCell id="JdxsYVur4gZCgjobztrS-74" value="DC.DM_MUX" style="text;html=1;align=right;verticalAlign=middle;whiteSpace=wrap;rounded=0;fontColor=#000000;" vertex="1" parent="JdxsYVur4gZCgjobztrS-69">
          <mxGeometry x="180" y="100" width="80" height="20" as="geometry" />
        </mxCell>
        <mxCell id="JdxsYVur4gZCgjobztrS-75" value="RST" style="text;html=1;align=right;verticalAlign=middle;whiteSpace=wrap;rounded=0;container=0;fontColor=#000000;" vertex="1" parent="JdxsYVur4gZCgjobztrS-69">
          <mxGeometry x="70" width="30" height="20" as="geometry" />
        </mxCell>
        <mxCell id="JdxsYVur4gZCgjobztrS-76" value="DC_Write" style="text;html=1;align=right;verticalAlign=middle;whiteSpace=wrap;rounded=0;container=0;fontColor=#000000;" vertex="1" parent="JdxsYVur4gZCgjobztrS-69">
          <mxGeometry x="200" y="40" width="60" height="20" as="geometry" />
        </mxCell>
        <mxCell id="JdxsYVur4gZCgjobztrS-77" value="" style="endArrow=classic;html=1;rounded=0;fontColor=#000000;" edge="1" parent="JdxsYVur4gZCgjobztrS-69">
          <mxGeometry width="50" height="50" relative="1" as="geometry">
            <mxPoint x="70" as="sourcePoint" />
            <mxPoint x="70" y="20" as="targetPoint" />
          </mxGeometry>
        </mxCell>
        <mxCell id="JdxsYVur4gZCgjobztrS-78" value="DC_Write_src" style="text;html=1;align=right;verticalAlign=middle;whiteSpace=wrap;rounded=0;container=0;fontColor=#000000;" vertex="1" parent="JdxsYVur4gZCgjobztrS-69">
          <mxGeometry x="180" y="60" width="80" height="20" as="geometry" />
        </mxCell>
        <mxCell id="JdxsYVur4gZCgjobztrS-79" value="DM_Addr_src" style="text;html=1;align=right;verticalAlign=middle;whiteSpace=wrap;rounded=0;container=0;fontColor=#000000;" vertex="1" parent="JdxsYVur4gZCgjobztrS-69">
          <mxGeometry x="180" y="20" width="80" height="20" as="geometry" />
        </mxCell>
        <mxCell id="JdxsYVur4gZCgjobztrS-80" value="" style="group" vertex="1" connectable="0" parent="JdxsYVur4gZCgjobztrS-69">
          <mxGeometry x="20" width="40.18000000000001" height="30" as="geometry" />
        </mxCell>
        <mxCell id="JdxsYVur4gZCgjobztrS-81" value="&lt;div align=&quot;left&quot;&gt;CLK&lt;/div&gt;" style="text;html=1;align=left;verticalAlign=middle;resizable=1;points=[];autosize=1;strokeColor=none;fillColor=none;movable=1;rotatable=1;deletable=1;editable=1;locked=0;connectable=1;fontColor=#000000;" vertex="1" parent="JdxsYVur4gZCgjobztrS-80">
          <mxGeometry width="40" height="20" as="geometry" />
        </mxCell>
        <mxCell id="JdxsYVur4gZCgjobztrS-82" value="" style="triangle;whiteSpace=wrap;html=1;rotation=90;fontColor=#000000;" vertex="1" parent="JdxsYVur4gZCgjobztrS-80">
          <mxGeometry x="25.180000000000007" y="15" width="10" height="20" as="geometry" />
        </mxCell>
        <mxCell id="JdxsYVur4gZCgjobztrS-83" value="" style="edgeStyle=none;orthogonalLoop=1;jettySize=auto;html=1;rounded=0;fontColor=#000000;" edge="1" parent="JdxsYVur4gZCgjobztrS-80">
          <mxGeometry width="100" relative="1" as="geometry">
            <mxPoint x="30.160000000000025" as="sourcePoint" />
            <mxPoint x="30.180000000000007" y="20" as="targetPoint" />
            <Array as="points" />
          </mxGeometry>
        </mxCell>
        <mxCell id="JdxsYVur4gZCgjobztrS-104" value="" style="group" vertex="1" connectable="0" parent="rKWjRTj_p7avdpBBxaFx-1">
          <mxGeometry x="1090" y="880" width="120" height="170" as="geometry" />
        </mxCell>
        <mxCell id="JdxsYVur4gZCgjobztrS-105" value="" style="endArrow=classic;html=1;rounded=0;fontColor=#000000;" edge="1" parent="JdxsYVur4gZCgjobztrS-104">
          <mxGeometry width="50" height="50" relative="1" as="geometry">
            <mxPoint x="90" as="sourcePoint" />
            <mxPoint x="90" y="20" as="targetPoint" />
          </mxGeometry>
        </mxCell>
        <mxCell id="JdxsYVur4gZCgjobztrS-106" value="" style="group;fontColor=#000000;" vertex="1" connectable="0" parent="JdxsYVur4gZCgjobztrS-104">
          <mxGeometry width="120" height="170" as="geometry" />
        </mxCell>
        <mxCell id="JdxsYVur4gZCgjobztrS-107" value="RST" style="text;html=1;align=right;verticalAlign=middle;whiteSpace=wrap;rounded=0;container=0;fontColor=#000000;" vertex="1" parent="JdxsYVur4gZCgjobztrS-106">
          <mxGeometry x="90" width="30" height="20" as="geometry" />
        </mxCell>
        <mxCell id="JdxsYVur4gZCgjobztrS-108" value="&lt;div&gt;&lt;span style=&quot;background-color: transparent;&quot;&gt;&lt;b&gt;Data_Cache&lt;/b&gt;&lt;/span&gt;&lt;/div&gt;" style="whiteSpace=wrap;html=1;shadow=1;fontSize=18;fillColor=#f5f5f5;strokeColor=#666666;container=0;fontColor=#000000;" vertex="1" parent="JdxsYVur4gZCgjobztrS-106">
          <mxGeometry y="20" width="120" height="120" as="geometry" />
        </mxCell>
        <mxCell id="JdxsYVur4gZCgjobztrS-109" value="DC_Addr" style="text;html=1;align=left;verticalAlign=middle;whiteSpace=wrap;rounded=0;container=0;fontColor=#000000;" vertex="1" parent="JdxsYVur4gZCgjobztrS-106">
          <mxGeometry y="20" width="60" height="20" as="geometry" />
        </mxCell>
        <mxCell id="JdxsYVur4gZCgjobztrS-110" value="DC_RD" style="text;html=1;align=right;verticalAlign=middle;whiteSpace=wrap;rounded=0;container=0;fontColor=#000000;" vertex="1" parent="JdxsYVur4gZCgjobztrS-106">
          <mxGeometry x="60" y="100" width="60" height="20" as="geometry" />
        </mxCell>
        <mxCell id="JdxsYVur4gZCgjobztrS-111" value="DC_Status" style="text;html=1;align=right;verticalAlign=middle;whiteSpace=wrap;rounded=0;container=0;fontColor=#000000;" vertex="1" parent="JdxsYVur4gZCgjobztrS-106">
          <mxGeometry x="60" y="120" width="60" height="20" as="geometry" />
        </mxCell>
        <mxCell id="JdxsYVur4gZCgjobztrS-112" value="DC_WD" style="text;html=1;align=left;verticalAlign=middle;whiteSpace=wrap;rounded=0;container=0;fontColor=#000000;" vertex="1" parent="JdxsYVur4gZCgjobztrS-106">
          <mxGeometry y="100" width="60" height="20" as="geometry" />
        </mxCell>
        <mxCell id="JdxsYVur4gZCgjobztrS-113" value="DC_Write" style="text;html=1;align=left;verticalAlign=middle;whiteSpace=wrap;rounded=0;container=0;fontColor=#000000;" vertex="1" parent="JdxsYVur4gZCgjobztrS-106">
          <mxGeometry y="120" width="60" height="20" as="geometry" />
        </mxCell>
        <mxCell id="JdxsYVur4gZCgjobztrS-114" value="WB_Addr" style="text;html=1;align=right;verticalAlign=middle;whiteSpace=wrap;rounded=0;container=0;fontColor=#000000;" vertex="1" parent="JdxsYVur4gZCgjobztrS-106">
          <mxGeometry x="60" y="30" width="60" height="20" as="geometry" />
        </mxCell>
        <mxCell id="JdxsYVur4gZCgjobztrS-115" value="WB_Data" style="text;html=1;align=right;verticalAlign=middle;whiteSpace=wrap;rounded=0;container=0;fontColor=#000000;" vertex="1" parent="JdxsYVur4gZCgjobztrS-106">
          <mxGeometry x="60" y="50" width="60" height="20" as="geometry" />
        </mxCell>
        <mxCell id="JdxsYVur4gZCgjobztrS-116" value="" style="group;rotation=90;" vertex="1" connectable="0" parent="JdxsYVur4gZCgjobztrS-106">
          <mxGeometry x="50" y="-5" width="40" height="30" as="geometry" />
        </mxCell>
        <mxCell id="JdxsYVur4gZCgjobztrS-117" value="" style="triangle;whiteSpace=wrap;html=1;rotation=90;container=0;fontColor=#000000;" vertex="1" parent="JdxsYVur4gZCgjobztrS-116">
          <mxGeometry x="20" y="20" width="10" height="20" as="geometry" />
        </mxCell>
        <mxCell id="JdxsYVur4gZCgjobztrS-118" value="" style="endArrow=classic;html=1;rounded=0;entryX=0;entryY=0.5;entryDx=0;entryDy=0;fontColor=#000000;" edge="1" parent="JdxsYVur4gZCgjobztrS-116" target="JdxsYVur4gZCgjobztrS-117">
          <mxGeometry width="50" height="50" relative="1" as="geometry">
            <mxPoint x="25" y="5" as="sourcePoint" />
            <mxPoint x="-5" y="145" as="targetPoint" />
          </mxGeometry>
        </mxCell>
        <mxCell id="JdxsYVur4gZCgjobztrS-119" value="CLK" style="text;html=1;align=center;verticalAlign=middle;whiteSpace=wrap;rounded=0;container=0;fontColor=#000000;rotation=0;" vertex="1" parent="JdxsYVur4gZCgjobztrS-116">
          <mxGeometry x="-10" y="5" width="30" height="20" as="geometry" />
        </mxCell>
        <mxCell id="JdxsYVur4gZCgjobztrS-120" value="" style="group" vertex="1" connectable="0" parent="rKWjRTj_p7avdpBBxaFx-1">
          <mxGeometry x="1030" y="770" width="20" height="60" as="geometry" />
        </mxCell>
        <mxCell id="JdxsYVur4gZCgjobztrS-121" value="" style="shape=trapezoid;perimeter=trapezoidPerimeter;whiteSpace=wrap;html=1;fixedSize=1;shadow=1;strokeColor=#666666;align=center;verticalAlign=middle;fontFamily=Helvetica;fontSize=18;fillColor=#f5f5f5;rotation=90;container=0;fontColor=#000000;" vertex="1" parent="JdxsYVur4gZCgjobztrS-120">
          <mxGeometry x="-20" y="20" width="60" height="20" as="geometry" />
        </mxCell>
        <mxCell id="JdxsYVur4gZCgjobztrS-122" value="10" style="text;html=1;align=left;verticalAlign=middle;whiteSpace=wrap;rounded=0;container=0;fontColor=#000000;" vertex="1" parent="JdxsYVur4gZCgjobztrS-120">
          <mxGeometry y="10" width="20" height="20" as="geometry" />
        </mxCell>
        <mxCell id="JdxsYVur4gZCgjobztrS-123" value="01" style="text;html=1;align=left;verticalAlign=middle;whiteSpace=wrap;rounded=0;container=0;fontColor=#000000;" vertex="1" parent="JdxsYVur4gZCgjobztrS-120">
          <mxGeometry y="30" width="20" height="20" as="geometry" />
        </mxCell>
        <mxCell id="JdxsYVur4gZCgjobztrS-125" style="edgeStyle=orthogonalEdgeStyle;rounded=0;orthogonalLoop=1;jettySize=auto;html=1;entryX=0;entryY=0.5;entryDx=0;entryDy=0;exitX=1;exitY=0.5;exitDx=0;exitDy=0;jumpStyle=arc;" edge="1" parent="rKWjRTj_p7avdpBBxaFx-1" source="JdxsYVur4gZCgjobztrS-114" target="JdxsYVur4gZCgjobztrS-122">
          <mxGeometry relative="1" as="geometry">
            <Array as="points">
              <mxPoint x="1220" y="920" />
              <mxPoint x="1220" y="690" />
              <mxPoint x="1080" y="690" />
              <mxPoint x="1080" y="700" />
              <mxPoint x="1030" y="700" />
              <mxPoint x="1030" y="750" />
              <mxPoint x="1010" y="750" />
              <mxPoint x="1010" y="790" />
            </Array>
          </mxGeometry>
        </mxCell>
        <mxCell id="JdxsYVur4gZCgjobztrS-126" value="" style="endArrow=classic;html=1;rounded=0;exitX=0.5;exitY=0;exitDx=0;exitDy=0;entryX=0;entryY=0.5;entryDx=0;entryDy=0;" edge="1" parent="rKWjRTj_p7avdpBBxaFx-1" source="JdxsYVur4gZCgjobztrS-121" target="JdxsYVur4gZCgjobztrS-11">
          <mxGeometry width="50" height="50" relative="1" as="geometry">
            <mxPoint x="1050" y="810" as="sourcePoint" />
            <mxPoint x="1100" y="760" as="targetPoint" />
          </mxGeometry>
        </mxCell>
        <mxCell id="JdxsYVur4gZCgjobztrS-127" value="" style="group" vertex="1" connectable="0" parent="rKWjRTj_p7avdpBBxaFx-1">
          <mxGeometry x="1270" y="810" width="20" height="60" as="geometry" />
        </mxCell>
        <mxCell id="uhy4OhNrzmBWaZpSt0tp-136" value="" style="shape=trapezoid;perimeter=trapezoidPerimeter;whiteSpace=wrap;html=1;fixedSize=1;shadow=1;strokeColor=#666666;align=center;verticalAlign=middle;fontFamily=Helvetica;fontSize=18;fillColor=#f5f5f5;rotation=90;container=0;fontColor=#000000;" parent="JdxsYVur4gZCgjobztrS-127" vertex="1">
          <mxGeometry x="-20" y="20" width="60" height="20" as="geometry" />
        </mxCell>
        <mxCell id="uhy4OhNrzmBWaZpSt0tp-137" value="10" style="text;html=1;align=left;verticalAlign=middle;whiteSpace=wrap;rounded=0;container=0;fontColor=#000000;" parent="JdxsYVur4gZCgjobztrS-127" vertex="1">
          <mxGeometry y="10" width="20" height="20" as="geometry" />
        </mxCell>
        <mxCell id="uhy4OhNrzmBWaZpSt0tp-138" value="01" style="text;html=1;align=left;verticalAlign=middle;whiteSpace=wrap;rounded=0;container=0;fontColor=#000000;" parent="JdxsYVur4gZCgjobztrS-127" vertex="1">
          <mxGeometry y="30" width="20" height="20" as="geometry" />
        </mxCell>
        <mxCell id="JdxsYVur4gZCgjobztrS-128" value="" style="group" vertex="1" connectable="0" parent="rKWjRTj_p7avdpBBxaFx-1">
          <mxGeometry x="1050" y="960" width="20.000000000000004" height="60" as="geometry" />
        </mxCell>
        <mxCell id="JdxsYVur4gZCgjobztrS-129" value="" style="shape=trapezoid;perimeter=trapezoidPerimeter;whiteSpace=wrap;html=1;fixedSize=1;shadow=1;strokeColor=#666666;align=center;verticalAlign=middle;fontFamily=Helvetica;fontSize=18;fillColor=#f5f5f5;rotation=90;container=0;fontColor=#000000;" vertex="1" parent="JdxsYVur4gZCgjobztrS-128">
          <mxGeometry x="-20" y="20" width="60" height="20" as="geometry" />
        </mxCell>
        <mxCell id="JdxsYVur4gZCgjobztrS-130" value="10" style="text;html=1;align=left;verticalAlign=middle;whiteSpace=wrap;rounded=0;container=0;fontColor=#000000;" vertex="1" parent="JdxsYVur4gZCgjobztrS-128">
          <mxGeometry x="1.7763568394002505e-15" y="10" width="20" height="20" as="geometry" />
        </mxCell>
        <mxCell id="JdxsYVur4gZCgjobztrS-131" value="01" style="text;html=1;align=left;verticalAlign=middle;whiteSpace=wrap;rounded=0;container=0;fontColor=#000000;" vertex="1" parent="JdxsYVur4gZCgjobztrS-128">
          <mxGeometry x="1.7763568394002505e-15" y="30" width="20" height="20" as="geometry" />
        </mxCell>
        <mxCell id="JdxsYVur4gZCgjobztrS-134" style="edgeStyle=orthogonalEdgeStyle;rounded=0;orthogonalLoop=1;jettySize=auto;html=1;entryX=0;entryY=0.5;entryDx=0;entryDy=0;" edge="1" parent="rKWjRTj_p7avdpBBxaFx-1" source="JdxsYVur4gZCgjobztrS-129" target="JdxsYVur4gZCgjobztrS-112">
          <mxGeometry relative="1" as="geometry" />
        </mxCell>
        <mxCell id="JdxsYVur4gZCgjobztrS-135" style="edgeStyle=orthogonalEdgeStyle;rounded=0;orthogonalLoop=1;jettySize=auto;html=1;entryX=0;entryY=0.5;entryDx=0;entryDy=0;jumpStyle=arc;" edge="1" parent="rKWjRTj_p7avdpBBxaFx-1" source="JdxsYVur4gZCgjobztrS-76" target="JdxsYVur4gZCgjobztrS-113">
          <mxGeometry relative="1" as="geometry">
            <Array as="points">
              <mxPoint x="970" y="980" />
              <mxPoint x="970" y="1050" />
              <mxPoint x="1070" y="1050" />
              <mxPoint x="1070" y="1010" />
            </Array>
          </mxGeometry>
        </mxCell>
        <mxCell id="uhy4OhNrzmBWaZpSt0tp-139" style="edgeStyle=orthogonalEdgeStyle;rounded=0;orthogonalLoop=1;jettySize=auto;html=1;entryX=0;entryY=0.5;entryDx=0;entryDy=0;jumpStyle=arc;fontColor=#000000;exitX=1;exitY=0.5;exitDx=0;exitDy=0;" parent="rKWjRTj_p7avdpBBxaFx-1" source="JdxsYVur4gZCgjobztrS-14" target="uhy4OhNrzmBWaZpSt0tp-137" edge="1">
          <mxGeometry relative="1" as="geometry">
            <mxPoint x="1200" y="830" as="sourcePoint" />
          </mxGeometry>
        </mxCell>
        <mxCell id="uhy4OhNrzmBWaZpSt0tp-198" style="edgeStyle=orthogonalEdgeStyle;rounded=0;orthogonalLoop=1;jettySize=auto;html=1;jumpStyle=arc;exitX=1;exitY=0.5;exitDx=0;exitDy=0;fontColor=#000000;entryX=0.5;entryY=1;entryDx=0;entryDy=0;" parent="rKWjRTj_p7avdpBBxaFx-1" target="JdxsYVur4gZCgjobztrS-131" edge="1">
          <mxGeometry relative="1" as="geometry">
            <Array as="points">
              <mxPoint x="960" y="1000" />
              <mxPoint x="960" y="1030" />
              <mxPoint x="1060" y="1030" />
            </Array>
            <mxPoint x="710" y="1000" as="sourcePoint" />
            <mxPoint x="930" y="1000" as="targetPoint" />
          </mxGeometry>
        </mxCell>
        <mxCell id="JdxsYVur4gZCgjobztrS-143" value="" style="group" vertex="1" connectable="0" parent="rKWjRTj_p7avdpBBxaFx-1">
          <mxGeometry x="1310" y="640" width="30" height="100" as="geometry" />
        </mxCell>
        <mxCell id="JdxsYVur4gZCgjobztrS-144" value="" style="shape=trapezoid;perimeter=trapezoidPerimeter;whiteSpace=wrap;html=1;fixedSize=1;shadow=1;strokeColor=#666666;align=center;verticalAlign=middle;fontFamily=Helvetica;fontSize=18;fillColor=#f5f5f5;rotation=90;fontColor=#000000;" vertex="1" parent="JdxsYVur4gZCgjobztrS-143">
          <mxGeometry x="-35" y="35" width="100" height="30" as="geometry" />
        </mxCell>
        <mxCell id="JdxsYVur4gZCgjobztrS-145" value="010" style="text;html=1;align=left;verticalAlign=middle;whiteSpace=wrap;rounded=0;container=0;fontColor=#000000;" vertex="1" parent="JdxsYVur4gZCgjobztrS-143">
          <mxGeometry y="30" width="20" height="20" as="geometry" />
        </mxCell>
        <mxCell id="JdxsYVur4gZCgjobztrS-146" value="001" style="text;html=1;align=left;verticalAlign=middle;whiteSpace=wrap;rounded=0;container=0;fontColor=#000000;" vertex="1" parent="JdxsYVur4gZCgjobztrS-143">
          <mxGeometry y="10" width="20" height="20" as="geometry" />
        </mxCell>
        <mxCell id="JdxsYVur4gZCgjobztrS-147" value="011" style="text;html=1;align=left;verticalAlign=middle;whiteSpace=wrap;rounded=0;container=0;fontColor=#000000;" vertex="1" parent="JdxsYVur4gZCgjobztrS-143">
          <mxGeometry y="50" width="20" height="20" as="geometry" />
        </mxCell>
        <mxCell id="JdxsYVur4gZCgjobztrS-148" value="100" style="text;html=1;align=left;verticalAlign=middle;whiteSpace=wrap;rounded=0;container=0;fontColor=#000000;" vertex="1" parent="JdxsYVur4gZCgjobztrS-143">
          <mxGeometry y="70" width="20" height="20" as="geometry" />
        </mxCell>
        <mxCell id="JdxsYVur4gZCgjobztrS-155" style="edgeStyle=orthogonalEdgeStyle;rounded=0;orthogonalLoop=1;jettySize=auto;html=1;entryX=0;entryY=0.5;entryDx=0;entryDy=0;" edge="1" parent="rKWjRTj_p7avdpBBxaFx-1" source="JdxsYVur4gZCgjobztrS-144" target="rKWjRTj_p7avdpBBxaFx-99">
          <mxGeometry relative="1" as="geometry" />
        </mxCell>
        <mxCell id="JdxsYVur4gZCgjobztrS-156" style="edgeStyle=orthogonalEdgeStyle;rounded=0;orthogonalLoop=1;jettySize=auto;html=1;entryX=0;entryY=0.5;entryDx=0;entryDy=0;exitX=1;exitY=0.5;exitDx=0;exitDy=0;jumpStyle=arc;" edge="1" parent="rKWjRTj_p7avdpBBxaFx-1" source="JdxsYVur4gZCgjobztrS-17" target="JdxsYVur4gZCgjobztrS-43">
          <mxGeometry relative="1" as="geometry">
            <Array as="points">
              <mxPoint x="1250" y="740" />
              <mxPoint x="1250" y="760" />
              <mxPoint x="1730" y="760" />
              <mxPoint x="1730" y="40" />
              <mxPoint x="630" y="40" />
              <mxPoint x="630" y="160" />
            </Array>
          </mxGeometry>
        </mxCell>
        <mxCell id="JdxsYVur4gZCgjobztrS-157" style="edgeStyle=orthogonalEdgeStyle;rounded=0;orthogonalLoop=1;jettySize=auto;html=1;entryX=0;entryY=0.5;entryDx=0;entryDy=0;exitX=1;exitY=0.5;exitDx=0;exitDy=0;jumpStyle=arc;" edge="1" parent="rKWjRTj_p7avdpBBxaFx-1" source="JdxsYVur4gZCgjobztrS-18" target="JdxsYVur4gZCgjobztrS-41">
          <mxGeometry relative="1" as="geometry">
            <Array as="points">
              <mxPoint x="1240" y="760" />
              <mxPoint x="1240" y="770" />
              <mxPoint x="1740" y="770" />
              <mxPoint x="1740" y="30" />
              <mxPoint x="620" y="30" />
              <mxPoint x="620" y="180" />
            </Array>
          </mxGeometry>
        </mxCell>
      </root>
    </mxGraphModel>
  </diagram>
</mxfile>
